<?xml version="1.0" encoding="UTF-8"?>
<svg id="Logotype_Editable_Text" xmlns="http://www.w3.org/2000/svg" viewBox="0 0 214.27 178.41">
  <defs>
    <style>
      .cls-1 {
        fill: #c8202f;
      }

      .cls-1, .cls-2, .cls-3, .cls-4 {
        stroke-width: 0px;
      }

      .cls-2 {
        fill: #757575;
      }

      .cls-3 {
        fill: #fff;
      }

      .cls-4 {
        fill: #c8202f;
      }
    </style>
  </defs>
  <g>
    <g>
      <g>
        <g>
          <path class="cls-3" d="M107.13,0C54.51,0,11.7,42.81,11.7,95.43c0,26.46,10.58,51.07,29.8,69.28l1.04.99,1.06-.98c2.76-2.55,5.67-4.91,8.69-7.09,14.63,12.92,33.83,20.78,54.84,20.78s40.18-7.85,54.81-20.76c3,2.17,5.9,4.52,8.65,7.07l1.06.98,1.04-.99c19.26-18.25,29.86-42.85,29.86-69.28C202.57,42.81,159.76,0,107.13,0Z" />
          <path class="cls-2" d="M107.13,0C54.51,0,11.7,42.81,11.7,95.43c0,26.46,10.58,51.07,29.8,69.28l1.04.99,1.06-.98c2.76-2.55,5.67-4.91,8.69-7.09,14.63,12.92,33.83,20.78,54.84,20.78s40.18-7.85,54.81-20.76c3,2.17,5.9,4.52,8.65,7.07l1.06.98,1.04-.99c19.26-18.25,29.86-42.85,29.86-69.28C202.57,42.81,159.76,0,107.13,0ZM107.13,175.33c-19.96,0-38.22-7.37-52.24-19.52,9.58-6.43,20.26-11.01,31.52-13.54l-6.1,7.9c-.73.95-.86,2.21-.33,3.28.53,1.08,1.6,1.75,2.8,1.75h48.39c1.2,0,2.27-.67,2.8-1.74.53-1.08.4-2.34-.33-3.28l-6.17-7.98c11.39,2.51,22.18,7.13,31.87,13.65-14.02,12.13-32.26,19.5-52.21,19.5ZM27.23,95.43C27.23,51.37,63.08,15.53,107.13,15.53s79.9,35.84,79.9,79.9c0,22.97-9.76,43.7-25.33,58.29-11.17-7.65-23.8-12.83-37.11-15.26h-3.97v-6.83c0-3.15-2.57-5.72-5.72-5.72h-21.58v12.55h-3.97c-13.19,2.45-25.75,7.65-36.83,15.23-15.56-14.59-25.3-35.3-25.3-58.26ZM117.55,138.46h-21.14v-9.47h18.5c1.45,0,2.64,1.18,2.64,2.64v6.83ZM117.55,141.54v3.14h-21.14s0-3.14,0-3.14h21.14ZM120.63,147.75v-6.21h2.45l8.12,10.59s0,0-.02,0l-48.43-.07,8.13-10.52h2.45v6.22h27.29ZM171.62,161.49c-2.36-2.12-4.82-4.1-7.35-5.96,15.91-15.13,25.85-36.47,25.85-60.1,0-45.76-37.23-82.98-82.98-82.98S24.15,49.68,24.15,95.43c0,23.62,9.93,44.94,25.82,60.07-2.55,1.87-5.02,3.86-7.39,5.98-17.94-17.52-27.81-40.92-27.81-66.05C14.78,44.51,56.21,3.08,107.13,3.08s92.35,41.43,92.35,92.35c0,25.1-9.89,48.5-27.87,66.06Z" />
        </g>
        <path class="cls-1" d="M205.91,60.08H0v49.89c0,4.61,3.75,8.37,8.36,8.37h205.91v-49.89c0-4.61-3.75-8.36-8.36-8.36Z" />
      </g>
      <g>
        <path class="cls-4" d="M82.98,51.05c-3.52,0-6.28-2.47-6.28-5.66s2.76-5.69,6.28-5.69,6.28,2.5,6.28,5.69-2.76,5.66-6.28,5.66M82.98,41.99c-2.24,0-4,1.5-4,3.4s1.76,3.38,4,3.38,4-1.47,4-3.38-1.76-3.4-4-3.4" />
        <path class="cls-4" d="M105.45,51.05c-1.26,0-2.28-1.05-2.28-2.33v-4.71c0-1.12-.98-2.02-2.19-2.02s-2.17.9-2.17,2.02v7.04c-1.26,0-2.29-1.02-2.29-2.28v-4.76c0-1.12-.98-2.02-2.19-2.02s-2.17.9-2.17,2.02v4.74c0,1.26-1.02,2.31-2.28,2.31v-7.04c0-2.38,2-4.31,4.45-4.31,1.33,0,2.52.55,3.33,1.43.81-.88,2-1.43,3.31-1.43,2.47,0,4.47,1.93,4.47,4.31v7.04h0Z" />
        <path class="cls-4" d="M112.87,51.03c-.6,0-1.17-.05-1.69-.17-1.19-.33-1.88-1.57-1.57-2.76.04-.14.09-.28.14-.4l.02-.02c.64.72,1.69,1.07,3.09,1.07,2.1,0,3.74-1.47,3.74-3.33s-1.64-3.45-3.74-3.45c-1.98,0-3.95,1.09-3.95,3.5v7.4c0,1.24-1.04,2.24-2.28,2.24v-9.64c0-3.33,2.62-5.78,6.24-5.78,1.6,0,3.09.6,4.23,1.64,1.15,1.07,1.79,2.52,1.79,4.09,0,3.14-2.64,5.62-6.02,5.62" />
        <path class="cls-4" d="M129.17,37.54h-4.89v13.52h-.1c-1.21,0-2.19-1.04-2.19-2.28v-11.23h-4.89c-1.24,0-2.24-1.02-2.24-2.26h16.56c0,1.24-1,2.26-2.26,2.26" />
        <path class="cls-4" d="M148.73,49.62l-1.21-2.61h-8.12s-1.2,2.68-1.2,2.68c-.57,1.08-2.07,1.4-3.23,1.4l6.61-14.5c.38-.83,1.04-1.31,1.81-1.31s1.46.48,1.83,1.31l6.54,14.33c-1.23.12-2.57-.25-3.05-1.3M143.66,37.64l-3.25,7.14h6.13l-3.27-7.16.39.02h0Z" />
        <path class="cls-4" d="M74.14,39.54c-1.24-1.31-3.05-2.16-5.05-2.16-3.54,0-6.43,2.57-6.43,5.73,0,3.16,2.88,5.76,6.43,5.76,1.69,0,3.28-.64,4.5-1.66.83-.69,2.07-.64,2.88.05-.62.95-1.45,1.78-2.48,2.43-1.45.93-3.14,1.41-4.9,1.41-4.78,0-8.66-3.57-8.66-7.97s3.88-7.97,8.66-7.97c3.4,0,6.5,1.86,7.88,4.71-.88.57-2.09.5-2.83-.31" />
        <path class="cls-4" d="M152.64,50.18c-.66,0-1.2-.48-1.2-1.08s.54-1.09,1.2-1.09,1.2.49,1.2,1.09-.54,1.08-1.2,1.08M152.64,48.27c-.53,0-.95.37-.95.83s.42.83.95.83.96-.37.96-.83-.43-.83-.96-.83M153.08,49.21s-.07.03-.11.05c0,0,.07.09.3.36l-.04.04c-.1.08-.24.07-.32-.03-.25-.3-.28-.34-.28-.34h-.29v-.08c.01-.11.1-.2.22-.2h.14c.1,0,.18-.02.23-.05.04-.02.06-.05.06-.09,0-.04,0-.13-.28-.13h-.39v.75c0,.12-.1.22-.23.22h-.06v-1.04c0-.12.1-.21.22-.21h.46c.52,0,.57.29.57.42,0,.15-.08.27-.2.34" />
        <path class="cls-4" d="M132.15,35.29v13.56c0,1.21,1.05,2.21,2.28,2.21v-13.56c0-1.21-1.05-2.21-2.28-2.21" />
      </g>
    </g>
    <path class="cls-2" d="M171.55,160.38c-.66,0-1.2-.48-1.2-1.08s.54-1.09,1.2-1.09,1.2.49,1.2,1.09-.54,1.08-1.2,1.08M171.55,158.46c-.53,0-.95.38-.95.83s.42.83.95.83.96-.37.96-.83-.43-.83-.96-.83M171.99,159.4s-.07.03-.11.05c0,0,.07.09.3.36l-.04.04c-.1.08-.24.07-.32-.02-.25-.3-.28-.34-.28-.34h-.29v-.08c.01-.11.1-.2.22-.2h.14c.1,0,.18-.02.23-.05.04-.02.06-.05.06-.09,0-.04,0-.13-.28-.13h-.39v.75c0,.12-.1.22-.23.22h-.06v-1.04c0-.12.1-.21.22-.21h.46c.51,0,.57.29.57.42,0,.15-.08.27-.2.34" />
  </g>
  <g>
    <path class="cls-3" d="M72.97,102.15h-4.35v-20.6h-6.97v-3.67h18.29v3.67h-6.97v20.6Z" />
    <path class="cls-3" d="M87.52,83.38c1.65,0,3.08.33,4.27,1,1.19.67,2.11,1.62,2.77,2.86.66,1.24.99,2.74.99,4.5v2.18h-12.17c.04,1.68.51,2.98,1.39,3.89.88.92,2.11,1.38,3.67,1.38,1.2,0,2.27-.12,3.21-.36.94-.24,1.91-.58,2.91-1.04v3.43c-.91.43-1.85.75-2.82.95-.97.2-2.14.31-3.5.31-1.79,0-3.38-.35-4.78-1.04s-2.48-1.74-3.26-3.14c-.78-1.41-1.17-3.15-1.17-5.24s.36-3.88,1.07-5.32c.71-1.44,1.71-2.53,2.98-3.26,1.27-.74,2.75-1.11,4.45-1.11ZM87.52,86.54c-1.13,0-2.06.37-2.77,1.11s-1.14,1.83-1.27,3.28h7.92c0-.86-.14-1.62-.42-2.28-.28-.66-.71-1.17-1.28-1.55s-1.29-.56-2.18-.56Z" />
    <path class="cls-3" d="M106.56,102.49c-1.75,0-3.26-.33-4.54-1-1.28-.67-2.27-1.7-2.96-3.09-.69-1.39-1.04-3.18-1.04-5.36s.38-4.11,1.14-5.53c.76-1.42,1.81-2.46,3.15-3.13,1.34-.67,2.87-1,4.59-1,1.16,0,2.19.11,3.09.34.91.23,1.68.5,2.31.82l-1.26,3.37c-.7-.27-1.41-.5-2.11-.7-.7-.19-1.38-.29-2.04-.29-1.02,0-1.86.23-2.53.68-.67.45-1.16,1.13-1.48,2.02s-.48,2.02-.48,3.38.16,2.41.49,3.3c.33.88.82,1.55,1.48,1.99.66.44,1.47.66,2.45.66,1.04,0,1.96-.12,2.75-.37.79-.25,1.54-.59,2.24-1.02v3.71c-.7.43-1.46.74-2.26.93-.8.19-1.81.29-3.01.29Z" />
    <path class="cls-3" d="M119.68,82.46c0,.73-.03,1.43-.08,2.12-.06.69-.11,1.21-.15,1.55h.27c.39-.63.86-1.15,1.43-1.55.57-.4,1.2-.7,1.89-.9.69-.2,1.41-.31,2.16-.31,1.38,0,2.57.24,3.57.71,1,.48,1.76,1.21,2.29,2.19.53.99.8,2.27.8,3.86v12h-4.28v-11.15c0-1.41-.27-2.45-.82-3.13s-1.41-1.02-2.58-1.02-2.03.24-2.69.73c-.66.49-1.12,1.2-1.39,2.14s-.41,2.09-.41,3.45v8.98h-4.28v-25.84h4.28v6.15Z" />
    <path class="cls-3" d="M145.01,88.58h6.56v3.16h-6.56v6.63h-3.2v-6.63h-6.53v-3.16h6.53v-6.7h3.2v6.7Z" />
  </g>
</svg>