<?xml version="1.0" encoding="UTF-8"?>
<svg id="Logotype_Editable_Text" xmlns="http://www.w3.org/2000/svg" viewBox="0 0 214.27 178.41">
  <defs>
    <style>
      .cls-1 {
        fill: #757575;
      }

      .cls-1, .cls-2, .cls-3 {
        stroke-width: 0px;
      }

      .cls-2 {
        fill: #fff;
      }

      .cls-3 {
        fill: #c8202f;
      }
    </style>
  </defs>
  <g>
    <g>
      <polygon class="cls-2" points="124.9 134.97 90.76 134.97 90.76 128.26 124.9 128.26 124.9 134.97 124.9 134.97" />
      <path class="cls-2" d="M107.13,0C54.51,0,11.7,42.81,11.7,95.43c0,26.46,10.58,51.07,29.8,69.28l1.05.99,1.06-.98c2.76-2.55,5.66-4.92,8.68-7.1,14.64,12.92,33.84,20.79,54.85,20.79s40.18-7.85,54.81-20.76c3,2.17,5.9,4.52,8.65,7.07l1.06.98,1.05-.99c19.26-18.25,29.86-42.85,29.86-69.28C202.57,42.81,159.76,0,107.13,0h0Z" />
      <path class="cls-1" d="M171.62,161.49c-2.36-2.12-4.83-4.09-7.36-5.95,15.91-15.13,25.86-36.47,25.86-60.1,0-45.76-37.23-82.98-82.98-82.98S24.16,49.68,24.16,95.43c0,23.62,9.94,44.95,25.83,60.08-2.55,1.87-5.02,3.85-7.4,5.98-17.94-17.52-27.81-40.92-27.81-66.05C14.78,44.51,56.21,3.08,107.13,3.08s92.35,41.43,92.35,92.35c0,25.1-9.89,48.5-27.87,66.06h0ZM115.63,140.37c15.72,1.42,30.71,6.73,43.71,15.48-14.01,12.13-32.26,19.49-52.2,19.49s-38.22-7.37-52.24-19.52c12.68-8.52,27.29-13.8,42.61-15.36M97.5,137.35c-16.19,1.6-31.63,7.23-44.96,16.35-15.56-14.59-25.31-35.3-25.31-58.27C27.23,51.37,63.08,15.53,107.13,15.53s79.9,35.84,79.9,79.9c0,22.97-9.76,43.7-25.33,58.29-13.65-9.35-29.47-14.99-46.08-16.44M107.13,0C54.51,0,11.7,42.81,11.7,95.43c0,26.46,10.58,51.07,29.8,69.28l1.05.99,1.06-.98c2.76-2.55,5.66-4.92,8.68-7.1,14.64,12.92,33.84,20.79,54.85,20.79s40.18-7.85,54.81-20.76c3,2.17,5.9,4.52,8.65,7.07l1.06.98,1.05-.99c19.26-18.25,29.86-42.85,29.86-69.28C202.57,42.81,159.76,0,107.13,0h0Z" />
      <path class="cls-1" d="M171.5,160.09c-.66,0-1.2-.48-1.2-1.08s.54-1.09,1.2-1.09,1.2.49,1.2,1.09-.54,1.08-1.2,1.08M171.5,158.18c-.53,0-.95.37-.95.83s.42.83.95.83.96-.37.96-.83-.43-.83-.96-.83M171.94,159.11s-.07.03-.11.05c0,0,.07.09.3.36l-.04.04c-.1.08-.24.07-.32-.02-.25-.3-.28-.34-.28-.34h-.29v-.08c.01-.11.1-.2.22-.2h.14c.1,0,.18-.02.23-.05.04-.02.06-.05.06-.09,0-.04,0-.13-.28-.13h-.39v.75c0,.12-.1.22-.23.22h-.06v-1.04c0-.12.1-.21.22-.21h.46c.52,0,.57.29.57.42,0,.15-.08.27-.2.34" />
      <path class="cls-1" d="M107.83,124.53c-8.51,0-15.44,6.93-15.44,15.44s6.93,15.44,15.44,15.44,15.44-6.93,15.44-15.44-6.93-15.44-15.44-15.44h0ZM107.83,157.91c-9.89,0-17.94-8.05-17.94-17.94s8.05-17.94,17.94-17.94,17.94,8.05,17.94,17.94-8.05,17.94-17.94,17.94h0Z" />
      <polygon class="cls-1" points="99.48 153.65 96.98 153.65 96.98 139.89 99.48 139.89 99.48 153.65 99.48 153.65" />
      <polygon class="cls-1" points="104.28 156.66 101.78 156.66 101.78 135.04 104.28 135.04 104.28 156.66 104.28 156.66" />
      <polygon class="cls-1" points="109.08 156.66 106.58 156.66 106.58 131.86 109.08 131.86 109.08 156.66 109.08 156.66" />
      <polygon class="cls-1" points="113.88 156.66 111.38 156.66 111.38 129.53 113.88 129.53 113.88 156.66 113.88 156.66" />
      <polygon class="cls-1" points="118.68 153.65 116.18 153.65 116.18 135.04 118.68 135.04 118.68 153.65 118.68 153.65" />
      <polygon class="cls-1" points="131.28 167.33 117.81 153.86 118.86 152.81 132.34 166.28 131.28 167.33 131.28 167.33" />
      <polygon class="cls-1" points="131.28 168.67 116.47 153.86 118.86 151.47 133.67 166.28 131.28 168.67 131.28 168.67" />
      <polygon class="cls-1" points="130.75 167.86 124.12 161.23 126.23 159.12 132.87 165.75 130.75 167.86 130.75 167.86" />
      <path class="cls-1" d="M125.45,161.23l5.3,5.3.77-.77-5.3-5.3-.77.77h0ZM130.75,169.2l-7.97-7.97,3.45-3.45,7.97,7.97-3.45,3.45h0Z" />
      <path class="cls-3" d="M205.91,60.08H0v49.89c0,4.61,3.75,8.36,8.36,8.36h205.91v-49.89c0-4.61-3.75-8.37-8.36-8.37h0Z" />
    </g>
    <g>
      <path class="cls-3" d="M82.98,51.06c-3.52,0-6.28-2.47-6.28-5.66s2.76-5.69,6.28-5.69,6.28,2.5,6.28,5.69-2.76,5.66-6.28,5.66M82.98,41.99c-2.24,0-4,1.5-4,3.4s1.76,3.38,4,3.38,4-1.47,4-3.38-1.76-3.4-4-3.4" />
      <path class="cls-3" d="M105.45,51.06c-1.26,0-2.28-1.05-2.28-2.33v-4.71c0-1.12-.98-2.02-2.19-2.02s-2.17.9-2.17,2.02v7.04c-1.26,0-2.29-1.02-2.29-2.28v-4.76c0-1.12-.98-2.02-2.19-2.02s-2.17.9-2.17,2.02v4.74c0,1.26-1.02,2.31-2.28,2.31v-7.04c0-2.38,2-4.31,4.45-4.31,1.33,0,2.52.55,3.33,1.43.81-.88,2-1.43,3.31-1.43,2.47,0,4.47,1.93,4.47,4.31v7.04h0Z" />
      <path class="cls-3" d="M112.87,51.03c-.6,0-1.17-.05-1.69-.17-1.19-.33-1.88-1.57-1.57-2.76.04-.14.09-.28.14-.4l.02-.02c.64.72,1.69,1.07,3.09,1.07,2.1,0,3.74-1.47,3.74-3.33s-1.64-3.45-3.74-3.45c-1.98,0-3.95,1.09-3.95,3.5v7.4c0,1.24-1.04,2.24-2.28,2.24v-9.64c0-3.33,2.62-5.78,6.24-5.78,1.6,0,3.09.6,4.23,1.64,1.15,1.07,1.79,2.52,1.79,4.09,0,3.14-2.64,5.62-6.02,5.62" />
      <path class="cls-3" d="M129.16,37.54h-4.89v13.52h-.1c-1.21,0-2.19-1.04-2.19-2.28v-11.23h-4.89c-1.24,0-2.24-1.02-2.24-2.26h16.56c0,1.24-1,2.26-2.26,2.26" />
      <path class="cls-3" d="M148.73,49.62l-1.21-2.61h-8.12s-1.2,2.68-1.2,2.68c-.57,1.08-2.07,1.4-3.23,1.4l6.61-14.5c.38-.83,1.04-1.31,1.81-1.31s1.46.48,1.83,1.31l6.54,14.33c-1.23.12-2.57-.25-3.05-1.3M143.66,37.64l-3.25,7.14h6.13l-3.27-7.16.39.02h0Z" />
      <path class="cls-3" d="M74.14,39.54c-1.24-1.31-3.05-2.16-5.05-2.16-3.54,0-6.43,2.57-6.43,5.73,0,3.16,2.88,5.76,6.43,5.76,1.69,0,3.28-.64,4.5-1.66.83-.69,2.07-.64,2.88.05-.62.95-1.45,1.78-2.48,2.43-1.45.93-3.14,1.41-4.9,1.41-4.78,0-8.66-3.57-8.66-7.97s3.88-7.97,8.66-7.97c3.4,0,6.5,1.86,7.88,4.71-.88.57-2.09.5-2.83-.31" />
      <path class="cls-3" d="M152.64,50.18c-.66,0-1.2-.48-1.2-1.08s.54-1.09,1.2-1.09,1.2.49,1.2,1.09-.54,1.08-1.2,1.08M152.64,48.27c-.53,0-.95.37-.95.83s.42.83.95.83.96-.37.96-.83-.43-.83-.96-.83M153.08,49.21s-.07.03-.11.05c0,0,.07.09.3.36l-.04.04c-.1.08-.24.07-.32-.03-.25-.3-.28-.34-.28-.34h-.29v-.08c.01-.11.1-.2.22-.2h.14c.1,0,.18-.02.23-.05.04-.02.06-.05.06-.09,0-.04,0-.13-.28-.13h-.39v.75c0,.12-.1.22-.23.22h-.06v-1.04c0-.12.1-.21.22-.21h.46c.52,0,.57.29.57.42,0,.15-.08.27-.2.34" />
      <path class="cls-3" d="M132.15,35.29v13.56c0,1.21,1.05,2.21,2.28,2.21v-13.56c0-1.21-1.05-2.21-2.28-2.21" />
    </g>
  </g>
  <g>
    <path class="cls-2" d="M81.43,89.77c0,2.72-.52,5-1.55,6.83-1.03,1.84-2.52,3.22-4.45,4.15-1.94.93-4.28,1.39-7.02,1.39h-6.83v-24.28h7.55c2.52,0,4.69.45,6.53,1.36,1.84.91,3.26,2.24,4.27,4,1.01,1.76,1.51,3.94,1.51,6.54ZM76.88,89.91c0-1.93-.29-3.51-.88-4.76-.59-1.25-1.46-2.17-2.62-2.77-1.16-.6-2.57-.9-4.25-.9h-3.2v17.03h2.62c2.81,0,4.9-.72,6.27-2.16s2.06-3.59,2.06-6.44Z" />
    <path class="cls-2" d="M92.79,83.38c2.38,0,4.19.52,5.42,1.55,1.24,1.03,1.85,2.65,1.85,4.85v12.38h-3.03l-.85-2.55h-.14c-.52.66-1.06,1.21-1.61,1.65-.56.44-1.19.76-1.9.95-.71.19-1.58.29-2.6.29-1.09,0-2.07-.2-2.94-.61s-1.56-1.04-2.06-1.89c-.5-.85-.75-1.92-.75-3.21,0-1.9.7-3.34,2.09-4.3s3.51-1.49,6.34-1.58l3.2-.1v-.92c0-1.18-.28-2.02-.85-2.52-.57-.5-1.36-.75-2.38-.75-.93,0-1.82.14-2.69.41-.86.27-1.7.59-2.52.95l-1.36-2.99c.91-.48,1.94-.86,3.11-1.16,1.17-.29,2.39-.44,3.66-.44ZM93.57,93.51c-1.88.07-3.18.39-3.91.97-.73.58-1.09,1.35-1.09,2.33,0,.86.26,1.48.78,1.87.52.39,1.19.58,2.01.58,1.25,0,2.3-.36,3.16-1.07.86-.71,1.29-1.77,1.29-3.18v-1.56l-2.24.07Z" />
    <path class="cls-2" d="M111.83,99.06c.54,0,1.06-.05,1.56-.15.5-.1.96-.22,1.39-.36v3.2c-.45.2-1.04.38-1.77.53-.73.15-1.48.22-2.28.22-1.04,0-1.99-.18-2.84-.53-.85-.35-1.53-.96-2.04-1.82-.51-.86-.76-2.06-.76-3.6v-9.59h-2.48v-1.87l2.72-1.5,1.36-3.91h2.69v4.05h5.24v3.23h-5.24v9.55c0,.86.23,1.5.68,1.92.45.42,1.04.63,1.77.63Z" />
    <path class="cls-2" d="M125.09,83.38c2.38,0,4.19.52,5.42,1.55,1.24,1.03,1.85,2.65,1.85,4.85v12.38h-3.03l-.85-2.55h-.14c-.52.66-1.06,1.21-1.61,1.65-.56.44-1.19.76-1.9.95-.71.19-1.58.29-2.6.29-1.09,0-2.07-.2-2.94-.61s-1.56-1.04-2.06-1.89c-.5-.85-.75-1.92-.75-3.21,0-1.9.7-3.34,2.09-4.3s3.51-1.49,6.34-1.58l3.2-.1v-.92c0-1.18-.28-2.02-.85-2.52-.57-.5-1.36-.75-2.38-.75-.93,0-1.82.14-2.69.41-.86.27-1.7.59-2.52.95l-1.36-2.99c.91-.48,1.94-.86,3.11-1.16,1.17-.29,2.39-.44,3.66-.44ZM125.87,93.51c-1.88.07-3.18.39-3.91.97-.73.58-1.09,1.35-1.09,2.33,0,.86.26,1.48.78,1.87.52.39,1.19.58,2.01.58,1.25,0,2.3-.36,3.16-1.07.86-.71,1.29-1.77,1.29-3.18v-1.56l-2.24.07Z" />
    <path class="cls-2" d="M155.82,102.15h-4.96l-5.95-9.69-5.98,9.69h-4.62l8.06-12.58-7.55-11.7h4.79l5.51,9.04,5.47-9.04h4.66l-7.58,11.87,8.16,12.41Z" />
  </g>
</svg>