<?xml version="1.0" encoding="UTF-8"?>
<svg id="Logotype_Editable_Text" xmlns="http://www.w3.org/2000/svg" viewBox="0 0 214.27 178.41">
  <defs>
    <style>
      .cls-1 {
        fill: #757575;
      }

      .cls-1, .cls-2, .cls-3 {
        stroke-width: 0px;
      }

      .cls-2 {
        fill: #fff;
      }

      .cls-3 {
        fill: #c8202f;
      }
    </style>
  </defs>
  <g>
    <g>
      <path class="cls-2" d="M107.13,0C54.51,0,11.7,42.81,11.7,95.43c0,26.46,10.58,51.07,29.8,69.28l1.05.99,1.06-.98c2.76-2.55,5.68-4.9,8.7-7.09,14.63,12.91,33.83,20.78,54.83,20.78s40.17-7.85,54.8-20.75c3,2.17,5.91,4.52,8.66,7.06l1.06.98,1.05-.99c19.26-18.25,29.86-42.85,29.86-69.28C202.57,42.81,159.76,0,107.13,0h0Z" />
      <path class="cls-1" d="M171.62,161.49c-2.36-2.12-4.82-4.1-7.35-5.96,15.91-15.13,25.85-36.47,25.85-60.1,0-45.76-37.23-82.98-82.98-82.98S24.15,49.68,24.15,95.43c0,23.62,9.94,44.95,25.83,60.07-2.55,1.87-5.02,3.85-7.39,5.98-17.94-17.52-27.81-40.92-27.81-66.05C14.78,44.51,56.21,3.08,107.13,3.08s92.35,41.43,92.35,92.35c0,25.1-9.89,48.5-27.87,66.06h0ZM161.71,153.72c-13.25-9.08-28.53-14.67-44.6-16.32-.01-.01-.03-.02-.04-.04.57-1.32.88-2.77.88-4.3,0-6.03-4.91-10.93-10.94-10.93s-10.93,4.91-10.93,10.93c0,1.53.32,2.98.88,4.3-.02.02-.04.04-.06.05-15.97,1.68-31.19,7.27-44.36,16.27-15.56-14.59-25.3-35.3-25.3-58.26C27.23,51.37,63.08,15.53,107.13,15.53s79.9,35.84,79.9,79.9c0,22.97-9.76,43.7-25.33,58.29h0ZM98.79,163.61v1.98h-7.64l-3.4-12.35c-.1-.36.05-.63.15-.76.1-.13.32-.34.7-.34h2.55c.7,4.87,3.59,9.04,7.64,11.47h0ZM94.26,152.14h4.53v7.74c-2.34-1.92-3.98-4.64-4.53-7.74h0ZM115.23,159.88v-7.74h4.53c-.55,3.1-2.2,5.82-4.53,7.74h0ZM122.88,152.14h2.55c.38,0,.6.22.7.34.1.13.25.4.15.76l-3.4,12.35h-7.64v-1.98c4.06-2.43,6.94-6.6,7.64-11.47h0ZM107.01,144c3.39,0,6.43-1.55,8.43-3.98,2.58,2.22,4.28,5.43,4.5,9.04h-7.79v12.7c-1.58.68-3.32,1.07-5.15,1.07s-3.56-.38-5.14-1.07v-12.7h-7.78c.22-3.61,1.91-6.82,4.5-9.04,2.01,2.43,5.04,3.98,8.43,3.98h0ZM112.86,138.3c-1.44,1.61-3.53,2.63-5.85,2.63s-4.41-1.02-5.85-2.63c1.76-.9,3.74-1.41,5.85-1.41s4.09.52,5.85,1.41h0ZM107.01,133.81c-2.68,0-5.19.67-7.42,1.83-.28-.81-.44-1.67-.44-2.57,0-4.33,3.52-7.86,7.86-7.86s7.86,3.52,7.86,7.86c0,.9-.16,1.76-.44,2.57-2.22-1.16-4.74-1.83-7.42-1.83h0ZM107.13,175.33c-19.96,0-38.21-7.37-52.23-19.51,11.63-7.81,24.88-12.9,38.81-14.9-1.58,2.35-2.56,5.14-2.71,8.14h-2.41c-1.24,0-2.39.57-3.14,1.56-.75.99-1,2.25-.67,3.45l4.02,14.61h13.06v-3.63c1.62.55,3.34.86,5.14.86s3.53-.31,5.15-.86v3.63h13.06l4.02-14.61c.33-1.2.09-2.46-.67-3.45-.75-.99-1.9-1.56-3.14-1.56h-2.41c-.15-3.02-1.14-5.81-2.72-8.16,14.01,1.97,27.34,7.07,39.05,14.95-14.01,12.13-32.26,19.49-52.21,19.49h0ZM107.13,0C54.51,0,11.7,42.81,11.7,95.43c0,26.46,10.58,51.07,29.8,69.28l1.05.99,1.06-.98c2.76-2.55,5.68-4.9,8.7-7.09,14.63,12.91,33.83,20.78,54.83,20.78s40.17-7.85,54.8-20.75c3,2.17,5.91,4.52,8.66,7.06l1.06.98,1.05-.99c19.26-18.25,29.86-42.85,29.86-69.28C202.57,42.81,159.76,0,107.13,0h0Z" />
      <path class="cls-1" d="M171.5,160.15c-.66,0-1.2-.48-1.2-1.08s.54-1.09,1.2-1.09,1.2.49,1.2,1.09-.54,1.08-1.2,1.08M171.5,158.24c-.53,0-.95.37-.95.83s.42.83.95.83.96-.37.96-.83-.43-.83-.96-.83M171.95,159.17s-.07.03-.11.04c0,0,.07.09.3.36l-.04.04c-.1.08-.24.07-.32-.03-.25-.3-.28-.33-.28-.33h-.29v-.08c.01-.11.1-.2.22-.2h.14c.1,0,.18-.02.23-.05.04-.02.06-.05.06-.09,0-.04,0-.13-.28-.13h-.39v.75c0,.12-.1.22-.23.22h-.06v-1.04c0-.12.1-.21.22-.21h.46c.52,0,.57.29.57.42,0,.15-.08.27-.2.34" />
      <path class="cls-3" d="M205.91,60.08H0v49.89c0,4.61,3.75,8.37,8.37,8.37h205.91v-49.89c0-4.61-3.75-8.36-8.36-8.36h0Z" />
    </g>
    <g>
      <path class="cls-3" d="M82.98,51.06c-3.52,0-6.28-2.47-6.28-5.66s2.76-5.69,6.28-5.69,6.28,2.5,6.28,5.69-2.76,5.66-6.28,5.66M82.98,41.99c-2.24,0-4,1.5-4,3.4s1.76,3.38,4,3.38,4-1.47,4-3.38-1.76-3.4-4-3.4" />
      <path class="cls-3" d="M105.45,51.05c-1.26,0-2.28-1.05-2.28-2.33v-4.71c0-1.12-.98-2.02-2.19-2.02s-2.17.9-2.17,2.02v7.04c-1.26,0-2.29-1.02-2.29-2.28v-4.76c0-1.12-.98-2.02-2.19-2.02s-2.17.9-2.17,2.02v4.74c0,1.26-1.02,2.31-2.28,2.31v-7.04c0-2.38,2-4.31,4.45-4.31,1.33,0,2.52.55,3.33,1.43.81-.88,2-1.43,3.31-1.43,2.47,0,4.47,1.93,4.47,4.31v7.04h0Z" />
      <path class="cls-3" d="M112.87,51.03c-.6,0-1.17-.05-1.69-.17-1.19-.33-1.88-1.57-1.57-2.76.04-.14.09-.28.14-.4l.02-.02c.64.72,1.69,1.07,3.09,1.07,2.1,0,3.74-1.47,3.74-3.33s-1.64-3.45-3.74-3.45c-1.98,0-3.95,1.09-3.95,3.5v7.4c0,1.24-1.04,2.24-2.28,2.24v-9.64c0-3.33,2.62-5.78,6.24-5.78,1.6,0,3.09.6,4.23,1.64,1.15,1.07,1.79,2.52,1.79,4.09,0,3.14-2.64,5.62-6.02,5.62" />
      <path class="cls-3" d="M129.16,37.54h-4.89v13.52h-.1c-1.21,0-2.19-1.04-2.19-2.28v-11.23h-4.89c-1.24,0-2.24-1.02-2.24-2.26h16.56c0,1.24-1,2.26-2.26,2.26" />
      <path class="cls-3" d="M148.73,49.62l-1.21-2.61h-8.12s-1.2,2.68-1.2,2.68c-.57,1.08-2.07,1.4-3.23,1.4l6.61-14.5c.38-.83,1.04-1.31,1.81-1.31s1.46.48,1.83,1.31l6.54,14.33c-1.23.12-2.57-.25-3.05-1.3M143.66,37.64l-3.25,7.14h6.13l-3.27-7.16.39.02h0Z" />
      <path class="cls-3" d="M74.14,39.54c-1.24-1.31-3.05-2.16-5.05-2.16-3.54,0-6.43,2.57-6.43,5.73,0,3.16,2.88,5.76,6.43,5.76,1.69,0,3.28-.64,4.5-1.66.83-.69,2.07-.64,2.88.05-.62.95-1.45,1.78-2.48,2.43-1.45.93-3.14,1.41-4.9,1.41-4.78,0-8.66-3.57-8.66-7.97s3.88-7.97,8.66-7.97c3.4,0,6.5,1.86,7.88,4.71-.88.57-2.09.5-2.83-.31" />
      <path class="cls-3" d="M152.64,50.18c-.66,0-1.2-.48-1.2-1.08s.54-1.09,1.2-1.09,1.2.49,1.2,1.09-.54,1.08-1.2,1.08M152.64,48.27c-.53,0-.95.37-.95.83s.42.83.95.83.96-.37.96-.83-.43-.83-.96-.83M153.08,49.21s-.07.03-.11.05c0,0,.07.09.3.36l-.04.04c-.1.08-.24.07-.32-.03-.25-.3-.28-.34-.28-.34h-.29v-.08c.01-.11.1-.2.22-.2h.14c.1,0,.18-.02.23-.05.04-.02.06-.05.06-.09,0-.04,0-.13-.28-.13h-.39v.75c0,.12-.1.22-.23.22h-.06v-1.04c0-.12.1-.21.22-.21h.46c.52,0,.57.29.57.42,0,.15-.08.27-.2.34" />
      <path class="cls-3" d="M132.15,35.29v13.56c0,1.21,1.05,2.21,2.28,2.21v-13.56c0-1.21-1.05-2.21-2.28-2.21" />
    </g>
  </g>
  <g>
    <path class="cls-2" d="M56.87,102.15v-24.28h4.35v20.6h10.13v3.67h-14.48Z" />
    <path class="cls-2" d="M76.55,76.62c.63,0,1.19.17,1.67.49.48.33.71.91.71,1.75s-.24,1.4-.71,1.75-1.03.53-1.67.53-1.22-.17-1.68-.53c-.46-.35-.7-.94-.7-1.75s.23-1.42.7-1.75c.46-.33,1.03-.49,1.68-.49ZM78.69,83.72v18.43h-4.28v-18.43h4.28Z" />
    <path class="cls-2" d="M93.28,83.38c2.06,0,3.68.53,4.85,1.6,1.17,1.07,1.75,2.79,1.75,5.17v12h-4.28v-11.15c0-1.38-.27-2.42-.82-3.11-.54-.69-1.41-1.04-2.58-1.04-1.72,0-2.9.54-3.54,1.61-.64,1.08-.95,2.64-.95,4.68v9.01h-4.28v-18.43h3.3l.61,2.41h.24c.41-.63.91-1.16,1.5-1.56.59-.41,1.25-.71,1.97-.9.73-.19,1.47-.29,2.24-.29Z" />
    <path class="cls-2" d="M120.85,83.72v18.43h-3.37l-.58-2.38h-.2c-.39.63-.88,1.15-1.5,1.55-.61.4-1.28.69-2.01.88-.73.19-1.47.29-2.24.29-1.36,0-2.54-.24-3.54-.71-1-.48-1.76-1.21-2.28-2.19s-.78-2.26-.78-3.83v-12.04h4.28v11.19c0,1.36.27,2.39.82,3.08.54.69,1.41,1.04,2.58,1.04s2.06-.24,2.72-.73c.66-.49,1.12-1.2,1.39-2.12.27-.93.41-2.07.41-3.43v-9.01h4.28Z" />
    <path class="cls-2" d="M129.56,92.73l-6.09-9.01h4.86l4.01,6.26,4.01-6.26h4.86l-6.15,9.01,6.46,9.42h-4.86l-4.32-6.7-4.32,6.7h-4.86l6.39-9.42Z" />
    <path class="cls-2" d="M152.41,88.58h6.56v3.16h-6.56v6.63h-3.2v-6.63h-6.53v-3.16h6.53v-6.7h3.2v6.7Z" />
  </g>
</svg>