<?xml version="1.0" encoding="UTF-8"?>
<svg id="Logotype_Editable_Text" xmlns="http://www.w3.org/2000/svg" viewBox="0 0 214.27 178.41">
  <defs>
    <style>
      .cls-1 {
        fill: #757575;
      }

      .cls-1, .cls-2, .cls-3 {
        stroke-width: 0px;
      }

      .cls-2 {
        fill: #fff;
      }

      .cls-3 {
        fill: #c8202f;
      }
    </style>
  </defs>
  <g>
    <g>
      <path class="cls-2" d="M107.14,0C54.51,0,11.7,42.81,11.7,95.43c0,26.46,10.58,51.07,29.8,69.28l1.05.99,1.06-.98c2.76-2.55,5.66-4.92,8.68-7.1,14.64,12.92,33.84,20.79,54.85,20.79s40.18-7.85,54.81-20.76c3,2.17,5.9,4.52,8.65,7.07l1.06.98,1.05-.99c19.26-18.25,29.86-42.85,29.86-69.28C202.57,42.81,159.76,0,107.14,0h0Z" />
      <path class="cls-1" d="M171.55,160.3c-.66,0-1.2-.48-1.2-1.08s.54-1.09,1.2-1.09,1.2.49,1.2,1.09-.54,1.08-1.2,1.08M171.55,158.39c-.53,0-.95.37-.95.83s.42.83.95.83.96-.38.96-.83-.43-.83-.96-.83M171.99,159.32s-.07.03-.11.05c0,0,.07.09.3.36l-.04.04c-.1.08-.24.07-.32-.03-.25-.3-.28-.34-.28-.34h-.29v-.08c.01-.11.1-.2.22-.2h.14c.1,0,.18-.02.23-.05.04-.02.06-.05.06-.09,0-.04,0-.14-.28-.14h-.39v.75c0,.12-.1.22-.23.22h-.06v-1.04c0-.12.1-.21.22-.21h.46c.52,0,.57.29.57.42,0,.15-.08.27-.2.34" />
      <path class="cls-1" d="M171.62,161.49c-2.36-2.12-4.83-4.09-7.36-5.95,15.91-15.13,25.86-36.47,25.86-60.1,0-45.76-37.23-82.98-82.98-82.98S24.16,49.68,24.16,95.43c0,23.62,9.94,44.95,25.83,60.08-2.55,1.87-5.02,3.85-7.4,5.98-17.94-17.52-27.81-40.92-27.81-66.05C14.78,44.51,56.21,3.08,107.13,3.08s92.35,41.43,92.35,92.35c0,25.1-9.89,48.5-27.87,66.06h0ZM161.71,153.72c-9.96-6.82-21.07-11.67-32.79-14.35l-3.3-.73v-9.38h-7.23c-3.18,0-6.36-.79-9.16-2.31l-2.31-1.24-1.52.89c-2.97,1.75-6.36,2.67-9.8,2.67h-7.34v9.47l-3.81.82c-11.4,2.73-22.21,7.52-31.9,14.15-15.56-14.59-25.31-35.3-25.31-58.27C27.23,51.37,63.08,15.53,107.13,15.53s79.9,35.84,79.9,79.9c0,22.97-9.76,43.7-25.33,58.29h0ZM100.91,145.86c0-4.09,3.32-7.41,7.4-7.41s7.41,3.32,7.41,7.41-3.32,7.41-7.41,7.41-7.4-3.32-7.4-7.41h0ZM103.55,155.1c1.42.75,3.05,1.18,4.76,1.18,5.74,0,10.42-4.67,10.42-10.42s-4.68-10.42-10.42-10.42-10.4,4.68-10.4,10.42c0,2.94,1.23,5.59,3.2,7.49l-4.72,6.59-1.33-.92c-2.23-1.56-3.55-4.1-3.55-6.81v-19.7h4.33c3.98,0,7.89-1.07,11.32-3.08l.06-.03.83.44c3.24,1.75,6.9,2.67,10.58,2.67h4.24v19.73c0,2.69-1.33,5.24-3.54,6.78l-12.09,8.48-8.39-5.84,4.7-6.56h0ZM107.13,175.34c-19.96,0-38.22-7.37-52.24-19.52,9.02-6.06,19.02-10.48,29.55-13.09l3.81-.86v10.1c0,3.69,1.82,7.16,4.84,9.27l13.92,9.69,13.81-9.69c3.01-2.11,4.8-5.56,4.8-9.24v-10.24l3.3.78c10.85,2.58,21.14,7.07,30.43,13.31-14.01,12.13-32.26,19.49-52.2,19.49h0ZM107.13,0C54.51,0,11.7,42.81,11.7,95.43c0,26.46,10.58,51.07,29.8,69.28l1.05.99,1.06-.98c2.76-2.55,5.66-4.92,8.68-7.1,14.64,12.92,33.84,20.79,54.85,20.79s40.18-7.85,54.81-20.76c3,2.17,5.9,4.52,8.65,7.07l1.06.98,1.05-.99c19.26-18.25,29.86-42.85,29.86-69.28C202.57,42.81,159.76,0,107.13,0h0Z" />
      <path class="cls-3" d="M205.91,60.08H0v49.89c0,4.61,3.75,8.36,8.36,8.36h205.91v-49.89c0-4.61-3.75-8.37-8.36-8.37h0Z" />
    </g>
    <g>
      <path class="cls-3" d="M82.98,51.06c-3.52,0-6.28-2.47-6.28-5.66s2.76-5.69,6.28-5.69,6.28,2.5,6.28,5.69-2.76,5.66-6.28,5.66M82.98,41.99c-2.24,0-4,1.5-4,3.4s1.76,3.38,4,3.38,4-1.47,4-3.38-1.76-3.4-4-3.4" />
      <path class="cls-3" d="M105.45,51.06c-1.26,0-2.28-1.05-2.28-2.33v-4.71c0-1.12-.98-2.02-2.19-2.02s-2.17.9-2.17,2.02v7.04c-1.26,0-2.29-1.02-2.29-2.28v-4.76c0-1.12-.98-2.02-2.19-2.02s-2.17.9-2.17,2.02v4.74c0,1.26-1.02,2.31-2.28,2.31v-7.04c0-2.38,2-4.31,4.45-4.31,1.33,0,2.52.55,3.33,1.43.81-.88,2-1.43,3.31-1.43,2.47,0,4.47,1.93,4.47,4.31v7.04h0Z" />
      <path class="cls-3" d="M112.87,51.03c-.6,0-1.17-.05-1.69-.17-1.19-.33-1.88-1.57-1.57-2.76.04-.14.09-.28.14-.4l.02-.02c.64.72,1.69,1.07,3.09,1.07,2.1,0,3.74-1.47,3.74-3.33s-1.64-3.45-3.74-3.45c-1.98,0-3.95,1.09-3.95,3.5v7.4c0,1.24-1.04,2.24-2.28,2.24v-9.64c0-3.33,2.62-5.78,6.24-5.78,1.6,0,3.09.6,4.23,1.64,1.15,1.07,1.79,2.52,1.79,4.09,0,3.14-2.64,5.62-6.02,5.62" />
      <path class="cls-3" d="M129.16,37.54h-4.89v13.52h-.1c-1.21,0-2.19-1.04-2.19-2.28v-11.23h-4.89c-1.24,0-2.24-1.02-2.24-2.26h16.56c0,1.24-1,2.26-2.26,2.26" />
      <path class="cls-3" d="M148.73,49.62l-1.21-2.61h-8.12s-1.2,2.68-1.2,2.68c-.57,1.08-2.07,1.4-3.23,1.4l6.61-14.5c.38-.83,1.04-1.31,1.81-1.31s1.46.48,1.83,1.31l6.54,14.33c-1.23.12-2.57-.25-3.05-1.3M143.66,37.64l-3.25,7.14h6.13l-3.27-7.16.39.02h0Z" />
      <path class="cls-3" d="M74.14,39.54c-1.24-1.31-3.05-2.16-5.05-2.16-3.54,0-6.43,2.57-6.43,5.73,0,3.16,2.88,5.76,6.43,5.76,1.69,0,3.28-.64,4.5-1.66.83-.69,2.07-.64,2.88.05-.62.95-1.45,1.78-2.48,2.43-1.45.93-3.14,1.41-4.9,1.41-4.78,0-8.66-3.57-8.66-7.97s3.88-7.97,8.66-7.97c3.4,0,6.5,1.86,7.88,4.71-.88.57-2.09.5-2.83-.31" />
      <path class="cls-3" d="M152.64,50.18c-.66,0-1.2-.48-1.2-1.08s.54-1.09,1.2-1.09,1.2.49,1.2,1.09-.54,1.08-1.2,1.08M152.64,48.27c-.53,0-.95.37-.95.83s.42.83.95.83.96-.37.96-.83-.43-.83-.96-.83M153.08,49.21s-.07.03-.11.05c0,0,.07.09.3.36l-.04.04c-.1.08-.24.07-.32-.03-.25-.3-.28-.34-.28-.34h-.29v-.08c.01-.11.1-.2.22-.2h.14c.1,0,.18-.02.23-.05.04-.02.06-.05.06-.09,0-.04,0-.13-.28-.13h-.39v.75c0,.12-.1.22-.23.22h-.06v-1.04c0-.12.1-.21.22-.21h.46c.52,0,.57.29.57.42,0,.15-.08.27-.2.34" />
      <path class="cls-3" d="M132.15,35.29v13.56c0,1.21,1.05,2.21,2.28,2.21v-13.56c0-1.21-1.05-2.21-2.28-2.21" />
    </g>
  </g>
  <g>
    <path class="cls-2" d="M71.55,81.21c-1.11,0-2.1.2-2.96.61-.86.41-1.59,1-2.19,1.77-.6.77-1.05,1.7-1.36,2.79-.31,1.09-.46,2.31-.46,3.67,0,1.84.25,3.41.75,4.71.5,1.3,1.26,2.31,2.29,3.01,1.03.7,2.33,1.05,3.89,1.05,1.04,0,2.05-.11,3.01-.32.96-.22,1.98-.5,3.04-.87v3.71c-1,.41-2,.7-3.01.88-1.01.18-2.17.27-3.48.27-2.49,0-4.56-.52-6.19-1.55-1.63-1.03-2.84-2.48-3.64-4.35s-1.19-4.06-1.19-6.58c0-1.84.26-3.51.77-5.03s1.25-2.83,2.21-3.94c.96-1.11,2.16-1.97,3.59-2.58,1.43-.61,3.07-.92,4.93-.92,1.22,0,2.43.14,3.62.43,1.19.28,2.31.67,3.35,1.17l-1.5,3.57c-.86-.38-1.75-.73-2.67-1.04-.92-.31-1.85-.46-2.81-.46Z" />
    <path class="cls-2" d="M78.9,83.72h4.66l3.67,10.4c.16.45.3.89.42,1.31s.23.84.32,1.27c.09.43.16.86.2,1.29h.14c.09-.57.23-1.19.42-1.87s.39-1.35.6-2.01l3.54-10.4h4.62l-7.85,20.88c-.45,1.2-1.03,2.23-1.72,3.09-.69.86-1.51,1.51-2.45,1.96-.94.44-2,.66-3.18.66-.54,0-1.03-.03-1.44-.08-.42-.06-.79-.12-1.1-.19v-3.4c.25.05.55.09.9.14.35.04.72.07,1.1.07.7,0,1.31-.14,1.82-.42.51-.28.94-.67,1.29-1.17.35-.5.64-1.05.87-1.67l.54-1.5-7.38-18.36Z" />
    <path class="cls-2" d="M114.02,95.52c0,1.43-.35,2.66-1.05,3.71s-1.72,1.85-3.04,2.41c-1.33.57-2.91.85-4.74.85-.88,0-1.73-.05-2.53-.15-.8-.1-1.56-.25-2.28-.46s-1.38-.45-1.99-.75v-4.08c1.02.45,2.14.87,3.37,1.24s2.47.56,3.74.56c.97,0,1.77-.13,2.4-.39.62-.26,1.08-.62,1.38-1.09.29-.46.44-1,.44-1.62,0-.68-.19-1.26-.58-1.73-.39-.48-.95-.92-1.7-1.33-.75-.41-1.68-.84-2.79-1.29-.75-.32-1.48-.67-2.19-1.07-.71-.4-1.35-.88-1.92-1.44-.57-.57-1.02-1.24-1.36-2.01-.34-.77-.51-1.68-.51-2.72,0-1.38.33-2.57,1-3.57.67-1,1.61-1.76,2.82-2.28,1.21-.52,2.62-.78,4.23-.78,1.29,0,2.5.14,3.64.41,1.13.27,2.25.66,3.37,1.16l-1.39,3.5c-1-.43-1.96-.77-2.89-1.02-.93-.25-1.88-.37-2.86-.37-.77,0-1.43.12-1.97.36-.54.24-.95.57-1.22,1-.27.43-.41.93-.41,1.5,0,.66.17,1.21.51,1.67.34.45.87.88,1.58,1.27.71.4,1.64.84,2.77,1.34,1.31.57,2.43,1.16,3.33,1.77.91.61,1.61,1.35,2.11,2.21.5.86.75,1.93.75,3.2Z" />
    <path class="cls-2" d="M132.85,102.15l-2.21-6.43h-9.15l-2.18,6.43h-4.62l8.91-24.38h4.96l8.91,24.38h-4.62ZM127.41,85.73c-.09-.32-.23-.75-.41-1.29-.18-.54-.36-1.1-.53-1.68-.17-.58-.3-1.06-.39-1.44-.11.45-.26.97-.43,1.56s-.33,1.14-.48,1.67-.27.92-.36,1.19l-2.14,6.26h6.83l-2.11-6.26Z" />
    <path class="cls-2" d="M148.05,88.58h6.56v3.16h-6.56v6.63h-3.2v-6.63h-6.53v-3.16h6.53v-6.7h3.2v6.7Z" />
  </g>
</svg>