<?xml version="1.0" encoding="UTF-8"?>
<svg id="Logotype_Editable_Text" xmlns="http://www.w3.org/2000/svg" viewBox="0 0 214.27 178.41">
  <defs>
    <style>
      .cls-1 {
        fill: #757575;
      }

      .cls-1, .cls-2, .cls-3 {
        stroke-width: 0px;
      }

      .cls-2 {
        fill: #fff;
      }

      .cls-3 {
        fill: #c8202f;
      }
    </style>
  </defs>
  <g>
    <g>
      <path class="cls-2" d="M107.14,0C54.51,0,11.7,42.81,11.7,95.43c0,26.46,10.58,51.07,29.8,69.28l1.05.99,1.06-.98c2.76-2.55,5.68-4.9,8.7-7.09,14.63,12.91,33.83,20.78,54.83,20.78s40.17-7.85,54.8-20.75c3,2.17,5.91,4.51,8.66,7.06l1.06.98,1.04-.99c19.26-18.25,29.86-42.85,29.86-69.28C202.57,42.81,159.76,0,107.14,0h0Z" />
      <path class="cls-1" d="M171.62,161.49c-2.36-2.12-4.82-4.1-7.35-5.96,15.91-15.13,25.85-36.47,25.85-60.1,0-45.76-37.23-82.98-82.98-82.98S24.16,49.68,24.16,95.43c0,23.62,9.94,44.95,25.83,60.07-2.55,1.87-5.02,3.85-7.39,5.98-17.94-17.52-27.81-40.92-27.81-66.05C14.78,44.51,56.21,3.08,107.14,3.08s92.35,41.43,92.35,92.35c0,25.1-9.89,48.5-27.87,66.06h0ZM161.71,153.72c-11.04-7.57-23.51-12.73-36.66-15.19h-9.92v-9.92h-20.35c-3.19,0-5.78,2.59-5.78,5.78v4.22c-13.08,2.48-25.49,7.58-36.47,15.08-15.56-14.59-25.3-35.3-25.3-58.26C27.23,51.37,63.08,15.53,107.14,15.53s79.9,35.84,79.9,79.9c0,22.97-9.76,43.7-25.33,58.29h0ZM112.05,138.53h-13.13v13.13h-6.84v-17.27c0-1.49,1.21-2.7,2.7-2.7h17.27v6.84h0ZM102,151.66v-10.05h10.05v10.05h-10.05ZM115.13,154.73v-13.13h6.84v17.65c0,1.28-1.04,2.32-2.32,2.32h-17.65v-6.84h13.13ZM107.14,175.33c-19.96,0-38.21-7.37-52.23-19.51,10.31-6.93,21.9-11.68,34.1-14.07v12.98h9.92v9.92h20.73c2.98,0,5.4-2.42,5.4-5.4v-17.56c12.27,2.38,23.92,7.16,34.29,14.15-14.02,12.13-32.26,19.49-52.21,19.49h0ZM107.14,0C54.51,0,11.7,42.81,11.7,95.43c0,26.46,10.58,51.07,29.8,69.28l1.05.99,1.06-.98c2.76-2.55,5.68-4.9,8.7-7.09,14.63,12.91,33.83,20.78,54.83,20.78s40.17-7.85,54.8-20.75c3,2.17,5.91,4.51,8.66,7.06l1.06.98,1.04-.99c19.26-18.25,29.86-42.85,29.86-69.28C202.57,42.81,159.76,0,107.14,0h0Z" />
      <path class="cls-1" d="M171.52,160.19c-.66,0-1.2-.48-1.2-1.08s.54-1.09,1.2-1.09,1.2.49,1.2,1.09-.54,1.08-1.2,1.08M171.52,158.28c-.53,0-.95.38-.95.83s.42.83.95.83.96-.37.96-.83-.43-.83-.96-.83M171.96,159.22s-.07.03-.11.05c0,0,.07.09.3.36l-.04.04c-.1.08-.24.07-.32-.03-.25-.3-.28-.34-.28-.34h-.29v-.08c.01-.11.1-.2.22-.2h.14c.1,0,.18-.02.23-.05.04-.02.06-.05.06-.09,0-.04,0-.13-.28-.13h-.39v.75c0,.12-.1.22-.23.22h-.06v-1.04c0-.12.1-.21.22-.21h.46c.52,0,.57.29.57.42,0,.15-.08.27-.2.34" />
      <path class="cls-3" d="M205.9,60.08H0v49.89c0,4.61,3.75,8.37,8.36,8.37h205.91v-49.89c0-4.61-3.75-8.36-8.37-8.36h0Z" />
    </g>
    <g>
      <path class="cls-3" d="M82.98,51.06c-3.52,0-6.28-2.47-6.28-5.66s2.76-5.69,6.28-5.69,6.28,2.5,6.28,5.69-2.76,5.66-6.28,5.66M82.98,41.99c-2.24,0-4,1.5-4,3.4s1.76,3.38,4,3.38,4-1.47,4-3.38-1.76-3.4-4-3.4" />
      <path class="cls-3" d="M105.45,51.05c-1.26,0-2.28-1.05-2.28-2.33v-4.71c0-1.12-.98-2.02-2.19-2.02s-2.17.9-2.17,2.02v7.04c-1.26,0-2.29-1.02-2.29-2.28v-4.76c0-1.12-.98-2.02-2.19-2.02s-2.17.9-2.17,2.02v4.74c0,1.26-1.02,2.31-2.28,2.31v-7.04c0-2.38,2-4.31,4.45-4.31,1.33,0,2.52.55,3.33,1.43.81-.88,2-1.43,3.31-1.43,2.47,0,4.47,1.93,4.47,4.31v7.04h0Z" />
      <path class="cls-3" d="M112.87,51.03c-.6,0-1.17-.05-1.69-.17-1.19-.33-1.88-1.57-1.57-2.76.04-.14.09-.28.14-.4l.02-.02c.64.72,1.69,1.07,3.09,1.07,2.1,0,3.74-1.47,3.74-3.33s-1.64-3.45-3.74-3.45c-1.98,0-3.95,1.09-3.95,3.5v7.4c0,1.24-1.04,2.24-2.28,2.24v-9.64c0-3.33,2.62-5.78,6.24-5.78,1.6,0,3.09.6,4.23,1.64,1.15,1.07,1.79,2.52,1.79,4.09,0,3.14-2.64,5.62-6.02,5.62" />
      <path class="cls-3" d="M129.16,37.54h-4.89v13.52h-.1c-1.21,0-2.19-1.04-2.19-2.28v-11.23h-4.89c-1.24,0-2.24-1.02-2.24-2.26h16.56c0,1.24-1,2.26-2.26,2.26" />
      <path class="cls-3" d="M148.73,49.62l-1.21-2.61h-8.12s-1.2,2.68-1.2,2.68c-.57,1.08-2.07,1.4-3.23,1.4l6.61-14.5c.38-.83,1.04-1.31,1.81-1.31s1.46.48,1.83,1.31l6.54,14.33c-1.23.12-2.57-.25-3.05-1.3M143.66,37.64l-3.25,7.14h6.13l-3.27-7.16.39.02h0Z" />
      <path class="cls-3" d="M74.14,39.54c-1.24-1.31-3.05-2.16-5.05-2.16-3.54,0-6.43,2.57-6.43,5.73,0,3.16,2.88,5.76,6.43,5.76,1.69,0,3.28-.64,4.5-1.66.83-.69,2.07-.64,2.88.05-.62.95-1.45,1.78-2.48,2.43-1.45.93-3.14,1.41-4.9,1.41-4.78,0-8.66-3.57-8.66-7.97s3.88-7.97,8.66-7.97c3.4,0,6.5,1.86,7.88,4.71-.88.57-2.09.5-2.83-.31" />
      <path class="cls-3" d="M152.64,50.18c-.66,0-1.2-.48-1.2-1.08s.54-1.09,1.2-1.09,1.2.49,1.2,1.09-.54,1.08-1.2,1.08M152.64,48.27c-.53,0-.95.37-.95.83s.42.83.95.83.96-.37.96-.83-.43-.83-.96-.83M153.08,49.21s-.07.03-.11.05c0,0,.07.09.3.36l-.04.04c-.1.08-.24.07-.32-.03-.25-.3-.28-.34-.28-.34h-.29v-.08c.01-.11.1-.2.22-.2h.14c.1,0,.18-.02.23-.05.04-.02.06-.05.06-.09,0-.04,0-.13-.28-.13h-.39v.75c0,.12-.1.22-.23.22h-.06v-1.04c0-.12.1-.21.22-.21h.46c.52,0,.57.29.57.42,0,.15-.08.27-.2.34" />
      <path class="cls-3" d="M132.15,35.29v13.56c0,1.21,1.05,2.21,2.28,2.21v-13.56c0-1.21-1.05-2.21-2.28-2.21" />
    </g>
  </g>
  <g>
    <path class="cls-2" d="M51.56,102.15h-5.41l-11.49-19.04h-.14c.04.68.08,1.39.12,2.14.03.75.07,1.51.1,2.29.03.78.06,1.57.08,2.36v12.24h-3.91v-24.28h5.37l11.46,18.9h.1c-.02-.59-.05-1.26-.07-2.01-.02-.75-.05-1.51-.08-2.29-.03-.78-.06-1.54-.08-2.26v-12.34h3.94v24.28Z" />
    <path class="cls-2" d="M64.14,83.38c1.65,0,3.08.33,4.27,1,1.19.67,2.11,1.62,2.77,2.86.66,1.24.99,2.74.99,4.5v2.18h-12.17c.04,1.68.51,2.98,1.39,3.89.88.92,2.11,1.38,3.67,1.38,1.2,0,2.27-.12,3.21-.36.94-.24,1.91-.58,2.91-1.04v3.43c-.91.43-1.85.75-2.82.95-.97.2-2.14.31-3.5.31-1.79,0-3.38-.35-4.78-1.04s-2.48-1.74-3.26-3.14c-.78-1.41-1.17-3.15-1.17-5.24s.36-3.88,1.07-5.32c.71-1.44,1.71-2.53,2.98-3.26,1.27-.74,2.75-1.11,4.45-1.11ZM64.14,86.54c-1.13,0-2.06.37-2.77,1.11s-1.14,1.83-1.27,3.28h7.92c0-.86-.14-1.62-.42-2.28-.28-.66-.71-1.17-1.28-1.55s-1.29-.56-2.18-.56Z" />
    <path class="cls-2" d="M82.88,99.06c.54,0,1.06-.05,1.56-.15.5-.1.96-.22,1.39-.36v3.2c-.45.2-1.04.38-1.77.53-.73.15-1.48.22-2.28.22-1.04,0-1.99-.18-2.84-.53-.85-.35-1.53-.96-2.04-1.82-.51-.86-.76-2.06-.76-3.6v-9.59h-2.48v-1.87l2.72-1.5,1.36-3.91h2.69v4.05h5.24v3.23h-5.24v9.55c0,.86.23,1.5.68,1.92.45.42,1.04.63,1.77.63Z" />
    <path class="cls-2" d="M101.85,94.23c-.11-.43-.25-.97-.41-1.62-.16-.65-.32-1.32-.49-2.02-.17-.7-.33-1.35-.48-1.94-.15-.59-.24-1.04-.29-1.36h-.14c-.07.32-.17.77-.31,1.36-.14.59-.28,1.24-.44,1.94-.16.7-.32,1.38-.49,2.04-.17.66-.31,1.2-.43,1.63l-2.14,7.89h-4.69l-5.17-18.46h4.32l2.28,8.81c.16.59.31,1.26.46,2.01.15.75.28,1.47.39,2.16.11.69.19,1.25.24,1.68h.14c.04-.29.1-.68.17-1.17.07-.49.15-1,.25-1.53.1-.53.2-1.02.31-1.48.1-.45.19-.8.25-1.05l2.65-9.42h4.69l2.55,9.42c.11.41.24.94.37,1.6.14.66.26,1.31.37,1.97.11.66.18,1.2.2,1.63h.14c.05-.39.12-.91.24-1.58.11-.67.25-1.39.41-2.16.16-.77.33-1.46.51-2.07l2.31-8.81h4.25l-5.24,18.46h-4.76l-2.04-7.92Z" />
    <path class="cls-2" d="M132.72,92.9c0,1.54-.2,2.9-.61,4.08-.41,1.18-.99,2.18-1.75,3.01-.76.83-1.69,1.45-2.79,1.87-1.1.42-2.32.63-3.66.63s-2.44-.21-3.5-.63-1.99-1.04-2.77-1.87c-.78-.83-1.39-1.83-1.82-3.01-.43-1.18-.65-2.54-.65-4.08,0-2.04.35-3.77,1.05-5.19.7-1.42,1.72-2.49,3.04-3.23,1.33-.74,2.9-1.11,4.71-1.11s3.24.37,4.54,1.11c1.3.74,2.33,1.81,3.08,3.23.75,1.42,1.12,3.15,1.12,5.19ZM119.56,92.9c0,1.29.15,2.4.46,3.31.31.92.78,1.62,1.43,2.09.65.48,1.48.71,2.5.71s1.89-.24,2.53-.71c.65-.48,1.12-1.17,1.41-2.09.29-.92.44-2.02.44-3.31s-.15-2.42-.46-3.32c-.31-.89-.78-1.58-1.43-2.04-.65-.46-1.48-.7-2.5-.7-1.54,0-2.66.52-3.35,1.56-.69,1.04-1.04,2.54-1.04,4.49Z" />
    <path class="cls-2" d="M146.05,83.38c.27,0,.59.01.95.03.36.02.67.07.92.14l-.37,3.98c-.2-.04-.47-.08-.8-.12s-.62-.05-.87-.05c-.68,0-1.33.11-1.96.32-.62.21-1.18.53-1.67.95-.49.42-.87.96-1.16,1.62-.28.66-.42,1.44-.42,2.35v9.55h-4.28v-18.43h3.3l.61,3.2h.2c.36-.66.82-1.25,1.36-1.79.54-.53,1.17-.96,1.89-1.27.71-.32,1.48-.48,2.29-.48Z" />
    <path class="cls-2" d="M154.82,88.58c0,.59-.02,1.21-.07,1.85-.05.65-.09,1.27-.14,1.89h.1c.18-.27.4-.57.65-.9.25-.33.5-.66.77-.99.26-.33.52-.63.77-.9l5.44-5.81h4.86l-7.38,7.96,7.85,10.47h-5l-5.71-7.89-2.14,1.77v6.12h-4.25v-25.84h4.25v12.27Z" />
    <path class="cls-2" d="M178.35,88.58h6.56v3.16h-6.56v6.63h-3.2v-6.63h-6.53v-3.16h6.53v-6.7h3.2v6.7Z" />
  </g>
</svg>