<?xml version="1.0" encoding="UTF-8"?>
<svg id="Logotype_Editable_Text" xmlns="http://www.w3.org/2000/svg" viewBox="0 0 214.27 178.41">
  <defs>
    <style>
      .cls-1 {
        fill: #757575;
      }

      .cls-1, .cls-2, .cls-3 {
        stroke-width: 0px;
      }

      .cls-2 {
        fill: #fff;
      }

      .cls-3 {
        fill: #c8202f;
      }
    </style>
  </defs>
  <g>
    <g>
      <path class="cls-2" d="M107.14,0C54.51,0,11.7,42.81,11.7,95.43c0,26.46,10.58,51.07,29.8,69.28l1.05.99,1.06-.98c2.76-2.55,5.67-4.91,8.69-7.1,14.63,12.92,33.83,20.79,54.84,20.79s40.18-7.85,54.81-20.76c3,2.17,5.9,4.53,8.65,7.07l1.06.98,1.05-.99c19.26-18.25,29.86-42.85,29.86-69.28C202.57,42.81,159.76,0,107.14,0h0Z" />
      <path class="cls-1" d="M171.62,161.49c-2.37-2.12-4.82-4.1-7.36-5.96,15.91-15.13,25.85-36.47,25.85-60.1,0-45.75-37.23-82.98-82.98-82.98S24.16,49.68,24.16,95.43c0,23.62,9.94,44.95,25.83,60.07-2.55,1.87-5.02,3.85-7.39,5.98-17.94-17.52-27.81-40.92-27.81-66.05C14.78,44.51,56.21,3.08,107.14,3.08s92.35,41.43,92.35,92.35c0,25.1-9.89,48.5-27.87,66.06h0ZM119.08,141.17v16.87c0,2.41-1.96,4.37-4.37,4.37h-19.6v-21.24h23.97ZM112.62,138.09h-11.29v-4.38c0-3.71,2.28-6.3,5.55-6.3s5.74,2.65,5.74,6.3v4.38h0ZM27.23,95.43C27.23,51.37,63.08,15.53,107.14,15.53s79.9,35.84,79.9,79.9c0,22.97-9.76,43.7-25.33,58.29-11.85-8.11-25.3-13.42-39.55-15.63h-6.46v-4.38c0-5.34-3.79-9.37-8.81-9.37s-8.63,3.94-8.63,9.37v4.38h-6.23c-14.22,2.21-27.67,7.53-39.49,15.6-15.56-14.59-25.31-35.3-25.31-58.26h0ZM107.14,175.34c-19.96,0-38.22-7.38-52.24-19.52,11.16-7.5,23.82-12.48,37.14-14.63v24.31h22.68c4.11,0,7.45-3.34,7.45-7.45v-16.86c13.33,2.14,26,7.13,37.19,14.66-14.02,12.13-32.27,19.5-52.21,19.5h0ZM107.14,0C54.51,0,11.7,42.81,11.7,95.43c0,26.46,10.58,51.07,29.8,69.28l1.05.99,1.06-.98c2.76-2.55,5.67-4.91,8.69-7.1,14.63,12.92,33.83,20.79,54.84,20.79s40.18-7.85,54.81-20.76c3,2.17,5.9,4.53,8.65,7.07l1.06.98,1.05-.99c19.26-18.25,29.86-42.85,29.86-69.28C202.57,42.81,159.76,0,107.14,0h0Z" />
      <path class="cls-1" d="M107.09,153.64c1.37,0,2.48-1.11,2.48-2.48s-1.11-2.48-2.48-2.48-2.48,1.11-2.48,2.48,1.11,2.48,2.48,2.48h0Z" />
      <path class="cls-1" d="M171.56,160.29c-.66,0-1.2-.48-1.2-1.08s.54-1.09,1.2-1.09,1.2.49,1.2,1.09-.54,1.08-1.2,1.08M171.56,158.38c-.53,0-.95.38-.95.83s.42.83.95.83.96-.38.96-.83-.43-.83-.96-.83M172,159.31s-.07.03-.11.05c0,0,.07.09.3.36l-.04.04c-.1.08-.24.07-.32-.02-.25-.3-.28-.34-.28-.34h-.29v-.08c.01-.11.11-.2.22-.2h.14c.1,0,.18-.02.23-.05.04-.02.06-.05.06-.09,0-.04,0-.13-.28-.13h-.39v.75c0,.12-.1.22-.23.22h-.06v-1.04c0-.12.1-.21.22-.21h.46c.52,0,.57.29.57.42,0,.15-.08.27-.2.34" />
      <path class="cls-3" d="M205.91,60.08H0v49.89c0,4.61,3.75,8.36,8.36,8.36h205.91v-49.89c0-4.61-3.75-8.37-8.36-8.37h0Z" />
    </g>
    <g>
      <path class="cls-3" d="M82.98,51.06c-3.52,0-6.28-2.47-6.28-5.66s2.76-5.69,6.28-5.69,6.28,2.5,6.28,5.69-2.76,5.66-6.28,5.66M82.98,41.99c-2.24,0-4,1.5-4,3.4s1.76,3.38,4,3.38,4-1.47,4-3.38-1.76-3.4-4-3.4" />
      <path class="cls-3" d="M105.45,51.06c-1.26,0-2.28-1.05-2.28-2.33v-4.71c0-1.12-.98-2.02-2.19-2.02s-2.17.9-2.17,2.02v7.04c-1.26,0-2.29-1.02-2.29-2.28v-4.76c0-1.12-.98-2.02-2.19-2.02s-2.17.9-2.17,2.02v4.74c0,1.26-1.02,2.31-2.28,2.31v-7.04c0-2.38,2-4.31,4.45-4.31,1.33,0,2.52.55,3.33,1.43.81-.88,2-1.43,3.31-1.43,2.47,0,4.47,1.93,4.47,4.31v7.04h0Z" />
      <path class="cls-3" d="M112.87,51.03c-.6,0-1.17-.05-1.69-.17-1.19-.33-1.88-1.57-1.57-2.76.04-.14.09-.28.14-.4l.02-.02c.64.72,1.69,1.07,3.09,1.07,2.1,0,3.74-1.47,3.74-3.33s-1.64-3.45-3.74-3.45c-1.98,0-3.95,1.09-3.95,3.5v7.4c0,1.24-1.04,2.24-2.28,2.24v-9.64c0-3.33,2.62-5.78,6.24-5.78,1.6,0,3.09.6,4.23,1.64,1.15,1.07,1.79,2.52,1.79,4.09,0,3.14-2.64,5.62-6.02,5.62" />
      <path class="cls-3" d="M129.16,37.54h-4.89v13.52h-.1c-1.21,0-2.19-1.04-2.19-2.28v-11.23h-4.89c-1.24,0-2.24-1.02-2.24-2.26h16.56c0,1.24-1,2.26-2.26,2.26" />
      <path class="cls-3" d="M148.73,49.62l-1.21-2.61h-8.12s-1.2,2.68-1.2,2.68c-.57,1.08-2.07,1.4-3.23,1.4l6.61-14.5c.38-.83,1.04-1.31,1.81-1.31s1.46.48,1.83,1.31l6.54,14.33c-1.23.12-2.57-.25-3.05-1.3M143.66,37.64l-3.25,7.14h6.13l-3.27-7.16.39.02h0Z" />
      <path class="cls-3" d="M74.14,39.54c-1.24-1.31-3.05-2.16-5.05-2.16-3.54,0-6.43,2.57-6.43,5.73,0,3.16,2.88,5.76,6.43,5.76,1.69,0,3.28-.64,4.5-1.66.83-.69,2.07-.64,2.88.05-.62.95-1.45,1.78-2.48,2.43-1.45.93-3.14,1.41-4.9,1.41-4.78,0-8.66-3.57-8.66-7.97s3.88-7.97,8.66-7.97c3.4,0,6.5,1.86,7.88,4.71-.88.57-2.09.5-2.83-.31" />
      <path class="cls-3" d="M152.64,50.18c-.66,0-1.2-.48-1.2-1.08s.54-1.09,1.2-1.09,1.2.49,1.2,1.09-.54,1.08-1.2,1.08M152.64,48.27c-.53,0-.95.37-.95.83s.42.83.95.83.96-.37.96-.83-.43-.83-.96-.83M153.08,49.21s-.07.03-.11.05c0,0,.07.09.3.36l-.04.04c-.1.08-.24.07-.32-.03-.25-.3-.28-.34-.28-.34h-.29v-.08c.01-.11.1-.2.22-.2h.14c.1,0,.18-.02.23-.05.04-.02.06-.05.06-.09,0-.04,0-.13-.28-.13h-.39v.75c0,.12-.1.22-.23.22h-.06v-1.04c0-.12.1-.21.22-.21h.46c.52,0,.57.29.57.42,0,.15-.08.27-.2.34" />
      <path class="cls-3" d="M132.15,35.29v13.56c0,1.21,1.05,2.21,2.28,2.21v-13.56c0-1.21-1.05-2.21-2.28-2.21" />
    </g>
  </g>
  <g>
    <path class="cls-2" d="M50.47,95.52c0,1.43-.35,2.66-1.05,3.71-.7,1.04-1.72,1.85-3.04,2.41-1.33.57-2.91.85-4.74.85-.88,0-1.73-.05-2.53-.15-.8-.1-1.56-.25-2.28-.46s-1.38-.45-1.99-.75v-4.08c1.02.45,2.14.87,3.37,1.24s2.47.56,3.74.56c.97,0,1.77-.13,2.4-.39.62-.26,1.08-.62,1.38-1.09.29-.46.44-1,.44-1.62,0-.68-.19-1.26-.58-1.73-.39-.48-.95-.92-1.7-1.33-.75-.41-1.68-.84-2.79-1.29-.75-.32-1.48-.67-2.19-1.07-.71-.4-1.35-.88-1.92-1.44-.57-.57-1.02-1.24-1.36-2.01-.34-.77-.51-1.68-.51-2.72,0-1.38.33-2.57,1-3.57.67-1,1.61-1.76,2.82-2.28,1.21-.52,2.62-.78,4.23-.78,1.29,0,2.5.14,3.64.41,1.13.27,2.25.66,3.37,1.16l-1.39,3.5c-1-.43-1.96-.77-2.89-1.02-.93-.25-1.88-.37-2.86-.37-.77,0-1.43.12-1.97.36-.54.24-.95.57-1.22,1s-.41.93-.41,1.5c0,.66.17,1.21.51,1.67s.87.88,1.58,1.27c.71.4,1.64.84,2.77,1.34,1.31.57,2.43,1.16,3.33,1.77.91.61,1.61,1.35,2.11,2.21s.75,1.93.75,3.2Z" />
    <path class="cls-2" d="M61.32,83.38c1.65,0,3.08.33,4.27,1,1.19.67,2.11,1.62,2.77,2.86.66,1.24.99,2.74.99,4.5v2.18h-12.17c.04,1.68.51,2.98,1.39,3.89.88.92,2.11,1.38,3.67,1.38,1.2,0,2.27-.12,3.21-.36.94-.24,1.91-.58,2.91-1.04v3.43c-.91.43-1.85.75-2.82.95-.97.2-2.14.31-3.5.31-1.79,0-3.38-.35-4.78-1.04s-2.48-1.74-3.26-3.14c-.78-1.41-1.17-3.15-1.17-5.24s.36-3.88,1.07-5.32c.71-1.44,1.71-2.53,2.98-3.26,1.27-.74,2.75-1.11,4.45-1.11ZM61.32,86.54c-1.13,0-2.06.37-2.77,1.11s-1.14,1.83-1.27,3.28h7.92c0-.86-.14-1.62-.42-2.28-.28-.66-.71-1.17-1.28-1.55s-1.29-.56-2.18-.56Z" />
    <path class="cls-2" d="M80.36,102.49c-1.75,0-3.26-.33-4.54-1-1.28-.67-2.27-1.7-2.96-3.09-.69-1.39-1.04-3.18-1.04-5.36s.38-4.11,1.14-5.53c.76-1.42,1.81-2.46,3.15-3.13,1.34-.67,2.87-1,4.59-1,1.16,0,2.19.11,3.09.34.91.23,1.68.5,2.31.82l-1.26,3.37c-.7-.27-1.41-.5-2.11-.7-.7-.19-1.38-.29-2.04-.29-1.02,0-1.86.23-2.53.68-.67.45-1.16,1.13-1.48,2.02s-.48,2.02-.48,3.38.16,2.41.49,3.3c.33.88.82,1.55,1.48,1.99.66.44,1.47.66,2.45.66,1.04,0,1.96-.12,2.75-.37.79-.25,1.54-.59,2.24-1.02v3.71c-.7.43-1.46.74-2.26.93-.8.19-1.81.29-3.01.29Z" />
    <path class="cls-2" d="M105.55,83.72v18.43h-3.37l-.58-2.38h-.2c-.39.63-.88,1.15-1.5,1.55-.61.4-1.28.69-2.01.88-.73.19-1.47.29-2.24.29-1.36,0-2.54-.24-3.54-.71-1-.48-1.76-1.21-2.28-2.19s-.78-2.26-.78-3.83v-12.04h4.28v11.19c0,1.36.27,2.39.82,3.08.54.69,1.41,1.04,2.58,1.04s2.06-.24,2.72-.73c.66-.49,1.12-1.2,1.39-2.12.27-.93.41-2.07.41-3.43v-9.01h4.28Z" />
    <path class="cls-2" d="M119.93,83.38c.27,0,.59.01.95.03.36.02.67.07.92.14l-.37,3.98c-.2-.04-.47-.08-.8-.12s-.62-.05-.87-.05c-.68,0-1.33.11-1.96.32-.62.21-1.18.53-1.67.95-.49.42-.87.96-1.16,1.62-.28.66-.42,1.44-.42,2.35v9.55h-4.28v-18.43h3.3l.61,3.2h.2c.36-.66.82-1.25,1.36-1.79.54-.53,1.17-.96,1.89-1.27.71-.32,1.48-.48,2.29-.48Z" />
    <path class="cls-2" d="M126.6,76.62c.63,0,1.19.17,1.67.49.48.33.71.91.71,1.75s-.24,1.4-.71,1.75-1.03.53-1.67.53-1.22-.17-1.68-.53c-.46-.35-.7-.94-.7-1.75s.23-1.42.7-1.75c.46-.33,1.03-.49,1.68-.49ZM128.74,83.72v18.43h-4.28v-18.43h4.28Z" />
    <path class="cls-2" d="M140.61,99.06c.54,0,1.06-.05,1.56-.15.5-.1.96-.22,1.39-.36v3.2c-.45.2-1.04.38-1.77.53-.73.15-1.48.22-2.28.22-1.04,0-1.99-.18-2.84-.53-.85-.35-1.53-.96-2.04-1.82-.51-.86-.76-2.06-.76-3.6v-9.59h-2.48v-1.87l2.72-1.5,1.36-3.91h2.69v4.05h5.24v3.23h-5.24v9.55c0,.86.23,1.5.68,1.92.45.42,1.04.63,1.77.63Z" />
    <path class="cls-2" d="M143.77,83.72h4.66l3.67,10.4c.16.45.3.89.42,1.31.12.42.23.84.32,1.27.09.43.16.86.2,1.29h.14c.09-.57.23-1.19.42-1.87.19-.68.39-1.35.6-2.01l3.54-10.4h4.62l-7.85,20.88c-.45,1.2-1.03,2.23-1.72,3.09-.69.86-1.51,1.51-2.45,1.96-.94.44-2,.66-3.18.66-.54,0-1.03-.03-1.44-.08-.42-.06-.79-.12-1.1-.19v-3.4c.25.05.55.09.9.14.35.04.72.07,1.1.07.7,0,1.31-.14,1.82-.42.51-.28.94-.67,1.29-1.17.35-.5.64-1.05.87-1.67l.54-1.5-7.38-18.36Z" />
    <path class="cls-2" d="M172.91,88.58h6.56v3.16h-6.56v6.63h-3.2v-6.63h-6.53v-3.16h6.53v-6.7h3.2v6.7Z" />
  </g>
</svg>