<?xml version="1.0" encoding="UTF-8"?>
<svg id="Logotype_Editable_Text" xmlns="http://www.w3.org/2000/svg" viewBox="0 0 214.27 178.41">
  <defs>
    <style>
      .cls-1 {
        fill: #757575;
      }

      .cls-1, .cls-2, .cls-3 {
        stroke-width: 0px;
      }

      .cls-2 {
        fill: #fff;
      }

      .cls-3 {
        fill: #c8202f;
      }
    </style>
  </defs>
  <g>
    <g>
      <path class="cls-2" d="M107.14,0C54.51,0,11.7,42.81,11.7,95.43c0,26.46,10.58,51.07,29.8,69.28l1.04.99,1.06-.98c2.76-2.55,5.67-4.92,8.69-7.1,14.64,12.92,33.83,20.79,54.85,20.79s40.19-7.86,54.82-20.76c3,2.17,5.89,4.53,8.65,7.08l1.06.98,1.04-.99c19.26-18.25,29.86-42.85,29.86-69.28C202.57,42.81,159.76,0,107.14,0h0Z" />
      <path class="cls-1" d="M171.62,161.49c-2.36-2.12-4.83-4.08-7.37-5.94,15.92-15.13,25.87-36.47,25.87-60.11,0-45.75-37.23-82.98-82.98-82.98S24.16,49.68,24.16,95.43c0,23.62,9.93,44.94,25.82,60.07-2.55,1.87-5.02,3.86-7.39,5.98-17.94-17.52-27.81-40.92-27.81-66.05C14.78,44.51,56.21,3.08,107.14,3.08s92.35,41.43,92.35,92.35c0,25.1-9.89,48.5-27.87,66.06h0ZM88.96,140.6h3.12l.08-1.46c.16-3.1,2.72-5.52,5.82-5.52h5.48l.31-1.13c1.02-3.67,4.39-6.24,8.21-6.24,4.7,0,8.52,3.82,8.52,8.52v3.52h5.61c3.21,0,5.83,2.62,5.83,5.83s-2.62,5.83-5.83,5.83h-37.14c-2.58,0-4.68-2.1-4.68-4.68s2.1-4.68,4.68-4.68h0ZM27.23,95.43C27.23,51.37,63.08,15.53,107.14,15.53s79.9,35.84,79.9,79.9c0,22.98-9.76,43.71-25.35,58.3-8.4-5.76-17.62-10.12-27.34-12.96-1.33-3.26-4.52-5.56-8.25-5.56h-2.53v-.44c0-6.39-5.2-11.6-11.6-11.6-4.8,0-9.08,2.98-10.8,7.37h-3.2c-4.24,0-7.81,2.97-8.69,6.98h-.32c-2.14,0-4.08.87-5.49,2.28-11.04,2.77-21.51,7.46-30.93,13.9-15.56-14.59-25.3-35.3-25.3-58.26h0ZM107.14,175.34c-19.96,0-38.22-7.38-52.24-19.52,8.15-5.48,17.1-9.61,26.51-12.29-.13.56-.21,1.15-.21,1.75,0,4.28,3.48,7.75,7.76,7.75h37.14c4.88,0,8.86-3.95,8.91-8.83,8.62,2.68,16.8,6.59,24.33,11.66-14.01,12.12-32.26,19.48-52.19,19.48h0ZM107.14,0C54.51,0,11.7,42.81,11.7,95.43c0,26.46,10.58,51.07,29.8,69.28l1.04.99,1.06-.98c2.76-2.55,5.67-4.92,8.69-7.1,14.64,12.92,33.83,20.79,54.85,20.79s40.19-7.86,54.82-20.76c3,2.17,5.89,4.53,8.65,7.08l1.06.98,1.04-.99c19.26-18.25,29.86-42.85,29.86-69.28C202.57,42.81,159.76,0,107.14,0h0Z" />
      <path class="cls-1" d="M171.52,160.03c-.66,0-1.2-.48-1.2-1.08s.54-1.09,1.2-1.09,1.2.49,1.2,1.09-.54,1.08-1.2,1.08M171.52,158.12c-.53,0-.95.38-.95.83s.42.83.95.83.96-.37.96-.83-.43-.83-.96-.83M171.96,159.06s-.07.03-.11.04c0,0,.07.09.3.36l-.04.04c-.1.08-.24.07-.32-.02-.25-.3-.28-.34-.28-.34h-.29v-.08c.01-.11.11-.2.22-.2h.14c.1,0,.18-.02.23-.05.04-.02.06-.05.06-.09,0-.04,0-.13-.28-.13h-.39v.75c0,.12-.1.22-.23.22h-.06v-1.04c0-.12.1-.21.22-.21h.46c.52,0,.57.29.57.42,0,.15-.08.27-.2.34" />
      <path class="cls-3" d="M205.91,60.08H0v49.89c0,4.61,3.75,8.36,8.36,8.36h205.91v-49.89c0-4.61-3.75-8.37-8.36-8.37h0Z" />
    </g>
    <g>
      <path class="cls-3" d="M82.98,51.06c-3.52,0-6.28-2.47-6.28-5.66s2.76-5.69,6.28-5.69,6.28,2.5,6.28,5.69-2.76,5.66-6.28,5.66M82.98,41.99c-2.24,0-4,1.5-4,3.4s1.76,3.38,4,3.38,4-1.47,4-3.38-1.76-3.4-4-3.4" />
      <path class="cls-3" d="M105.45,51.06c-1.26,0-2.28-1.05-2.28-2.33v-4.71c0-1.12-.98-2.02-2.19-2.02s-2.17.9-2.17,2.02v7.04c-1.26,0-2.29-1.02-2.29-2.28v-4.76c0-1.12-.98-2.02-2.19-2.02s-2.17.9-2.17,2.02v4.74c0,1.26-1.02,2.31-2.28,2.31v-7.04c0-2.38,2-4.31,4.45-4.31,1.33,0,2.52.55,3.33,1.43.81-.88,2-1.43,3.31-1.43,2.47,0,4.47,1.93,4.47,4.31v7.04h0Z" />
      <path class="cls-3" d="M112.87,51.03c-.6,0-1.17-.05-1.69-.17-1.19-.33-1.88-1.57-1.57-2.76.04-.14.09-.28.14-.4l.02-.02c.64.72,1.69,1.07,3.09,1.07,2.1,0,3.74-1.47,3.74-3.33s-1.64-3.45-3.74-3.45c-1.98,0-3.95,1.09-3.95,3.5v7.4c0,1.24-1.04,2.24-2.28,2.24v-9.64c0-3.33,2.62-5.78,6.24-5.78,1.6,0,3.09.6,4.23,1.64,1.15,1.07,1.79,2.52,1.79,4.09,0,3.14-2.64,5.62-6.02,5.62" />
      <path class="cls-3" d="M129.16,37.54h-4.89v13.52h-.1c-1.21,0-2.19-1.04-2.19-2.28v-11.23h-4.89c-1.24,0-2.24-1.02-2.24-2.26h16.56c0,1.24-1,2.26-2.26,2.26" />
      <path class="cls-3" d="M148.73,49.62l-1.21-2.61h-8.12s-1.2,2.68-1.2,2.68c-.57,1.08-2.07,1.4-3.23,1.4l6.61-14.5c.38-.83,1.04-1.31,1.81-1.31s1.46.48,1.83,1.31l6.54,14.33c-1.23.12-2.57-.25-3.05-1.3M143.66,37.64l-3.25,7.14h6.13l-3.27-7.16.39.02h0Z" />
      <path class="cls-3" d="M74.14,39.54c-1.24-1.31-3.05-2.16-5.05-2.16-3.54,0-6.43,2.57-6.43,5.73,0,3.16,2.88,5.76,6.43,5.76,1.69,0,3.28-.64,4.5-1.66.83-.69,2.07-.64,2.88.05-.62.95-1.45,1.78-2.48,2.43-1.45.93-3.14,1.41-4.9,1.41-4.78,0-8.66-3.57-8.66-7.97s3.88-7.97,8.66-7.97c3.4,0,6.5,1.86,7.88,4.71-.88.57-2.09.5-2.83-.31" />
      <path class="cls-3" d="M152.64,50.18c-.66,0-1.2-.48-1.2-1.08s.54-1.09,1.2-1.09,1.2.49,1.2,1.09-.54,1.08-1.2,1.08M152.64,48.27c-.53,0-.95.37-.95.83s.42.83.95.83.96-.37.96-.83-.43-.83-.96-.83M153.08,49.21s-.07.03-.11.05c0,0,.07.09.3.36l-.04.04c-.1.08-.24.07-.32-.03-.25-.3-.28-.34-.28-.34h-.29v-.08c.01-.11.1-.2.22-.2h.14c.1,0,.18-.02.23-.05.04-.02.06-.05.06-.09,0-.04,0-.13-.28-.13h-.39v.75c0,.12-.1.22-.23.22h-.06v-1.04c0-.12.1-.21.22-.21h.46c.52,0,.57.29.57.42,0,.15-.08.27-.2.34" />
      <path class="cls-3" d="M132.15,35.29v13.56c0,1.21,1.05,2.21,2.28,2.21v-13.56c0-1.21-1.05-2.21-2.28-2.21" />
    </g>
  </g>
  <g>
    <g>
      <path class="cls-2" d="M107.14,0C54.51,0,11.7,42.81,11.7,95.43c0,26.46,10.58,51.07,29.8,69.28l1.04.99,1.06-.98c2.76-2.55,5.67-4.92,8.69-7.1,14.64,12.92,33.83,20.79,54.85,20.79s40.19-7.86,54.82-20.76c3,2.17,5.89,4.53,8.65,7.08l1.06.98,1.04-.99c19.26-18.25,29.86-42.85,29.86-69.28C202.57,42.81,159.76,0,107.14,0h0Z" />
      <path class="cls-1" d="M171.62,161.49c-2.36-2.12-4.83-4.08-7.37-5.94,15.92-15.13,25.87-36.47,25.87-60.11,0-45.75-37.23-82.98-82.98-82.98S24.16,49.68,24.16,95.43c0,23.62,9.93,44.94,25.82,60.07-2.55,1.87-5.02,3.86-7.39,5.98-17.94-17.52-27.81-40.92-27.81-66.05C14.78,44.51,56.21,3.08,107.14,3.08s92.35,41.43,92.35,92.35c0,25.1-9.89,48.5-27.87,66.06h0ZM88.96,140.6h3.12l.08-1.46c.16-3.1,2.72-5.52,5.82-5.52h5.48l.31-1.13c1.02-3.67,4.39-6.24,8.21-6.24,4.7,0,8.52,3.82,8.52,8.52v3.52h5.61c3.21,0,5.83,2.62,5.83,5.83s-2.62,5.83-5.83,5.83h-37.14c-2.58,0-4.68-2.1-4.68-4.68s2.1-4.68,4.68-4.68h0ZM27.23,95.43C27.23,51.37,63.08,15.53,107.14,15.53s79.9,35.84,79.9,79.9c0,22.98-9.76,43.71-25.35,58.3-8.4-5.76-17.62-10.12-27.34-12.96-1.33-3.26-4.52-5.56-8.25-5.56h-2.53v-.44c0-6.39-5.2-11.6-11.6-11.6-4.8,0-9.08,2.98-10.8,7.37h-3.2c-4.24,0-7.81,2.97-8.69,6.98h-.32c-2.14,0-4.08.87-5.49,2.28-11.04,2.77-21.51,7.46-30.93,13.9-15.56-14.59-25.3-35.3-25.3-58.26h0ZM107.14,175.34c-19.96,0-38.22-7.38-52.24-19.52,8.15-5.48,17.1-9.61,26.51-12.29-.13.56-.21,1.15-.21,1.75,0,4.28,3.48,7.75,7.76,7.75h37.14c4.88,0,8.86-3.95,8.91-8.83,8.62,2.68,16.8,6.59,24.33,11.66-14.01,12.12-32.26,19.48-52.19,19.48h0ZM107.14,0C54.51,0,11.7,42.81,11.7,95.43c0,26.46,10.58,51.07,29.8,69.28l1.04.99,1.06-.98c2.76-2.55,5.67-4.92,8.69-7.1,14.64,12.92,33.83,20.79,54.85,20.79s40.19-7.86,54.82-20.76c3,2.17,5.89,4.53,8.65,7.08l1.06.98,1.04-.99c19.26-18.25,29.86-42.85,29.86-69.28C202.57,42.81,159.76,0,107.14,0h0Z" />
      <path class="cls-1" d="M171.52,160.03c-.66,0-1.2-.48-1.2-1.08s.54-1.09,1.2-1.09,1.2.49,1.2,1.09-.54,1.08-1.2,1.08M171.52,158.12c-.53,0-.95.38-.95.83s.42.83.95.83.96-.37.96-.83-.43-.83-.96-.83M171.96,159.06s-.07.03-.11.04c0,0,.07.09.3.36l-.04.04c-.1.08-.24.07-.32-.02-.25-.3-.28-.34-.28-.34h-.29v-.08c.01-.11.11-.2.22-.2h.14c.1,0,.18-.02.23-.05.04-.02.06-.05.06-.09,0-.04,0-.13-.28-.13h-.39v.75c0,.12-.1.22-.23.22h-.06v-1.04c0-.12.1-.21.22-.21h.46c.52,0,.57.29.57.42,0,.15-.08.27-.2.34" />
      <path class="cls-3" d="M205.91,60.08H0v49.89c0,4.61,3.75,8.36,8.36,8.36h205.91v-49.89c0-4.61-3.75-8.37-8.36-8.37h0Z" />
    </g>
    <g>
      <path class="cls-3" d="M82.98,51.06c-3.52,0-6.28-2.47-6.28-5.66s2.76-5.69,6.28-5.69,6.28,2.5,6.28,5.69-2.76,5.66-6.28,5.66M82.98,41.99c-2.24,0-4,1.5-4,3.4s1.76,3.38,4,3.38,4-1.47,4-3.38-1.76-3.4-4-3.4" />
      <path class="cls-3" d="M105.45,51.06c-1.26,0-2.28-1.05-2.28-2.33v-4.71c0-1.12-.98-2.02-2.19-2.02s-2.17.9-2.17,2.02v7.04c-1.26,0-2.29-1.02-2.29-2.28v-4.76c0-1.12-.98-2.02-2.19-2.02s-2.17.9-2.17,2.02v4.74c0,1.26-1.02,2.31-2.28,2.31v-7.04c0-2.38,2-4.31,4.45-4.31,1.33,0,2.52.55,3.33,1.43.81-.88,2-1.43,3.31-1.43,2.47,0,4.47,1.93,4.47,4.31v7.04h0Z" />
      <path class="cls-3" d="M112.87,51.03c-.6,0-1.17-.05-1.69-.17-1.19-.33-1.88-1.57-1.57-2.76.04-.14.09-.28.14-.4l.02-.02c.64.72,1.69,1.07,3.09,1.07,2.1,0,3.74-1.47,3.74-3.33s-1.64-3.45-3.74-3.45c-1.98,0-3.95,1.09-3.95,3.5v7.4c0,1.24-1.04,2.24-2.28,2.24v-9.64c0-3.33,2.62-5.78,6.24-5.78,1.6,0,3.09.6,4.23,1.64,1.15,1.07,1.79,2.52,1.79,4.09,0,3.14-2.64,5.62-6.02,5.62" />
      <path class="cls-3" d="M129.16,37.54h-4.89v13.52h-.1c-1.21,0-2.19-1.04-2.19-2.28v-11.23h-4.89c-1.24,0-2.24-1.02-2.24-2.26h16.56c0,1.24-1,2.26-2.26,2.26" />
      <path class="cls-3" d="M148.73,49.62l-1.21-2.61h-8.12s-1.2,2.68-1.2,2.68c-.57,1.08-2.07,1.4-3.23,1.4l6.61-14.5c.38-.83,1.04-1.31,1.81-1.31s1.46.48,1.83,1.31l6.54,14.33c-1.23.12-2.57-.25-3.05-1.3M143.66,37.64l-3.25,7.14h6.13l-3.27-7.16.39.02h0Z" />
      <path class="cls-3" d="M74.14,39.54c-1.24-1.31-3.05-2.16-5.05-2.16-3.54,0-6.43,2.57-6.43,5.73,0,3.16,2.88,5.76,6.43,5.76,1.69,0,3.28-.64,4.5-1.66.83-.69,2.07-.64,2.88.05-.62.95-1.45,1.78-2.48,2.43-1.45.93-3.14,1.41-4.9,1.41-4.78,0-8.66-3.57-8.66-7.97s3.88-7.97,8.66-7.97c3.4,0,6.5,1.86,7.88,4.71-.88.57-2.09.5-2.83-.31" />
      <path class="cls-3" d="M152.64,50.18c-.66,0-1.2-.48-1.2-1.08s.54-1.09,1.2-1.09,1.2.49,1.2,1.09-.54,1.08-1.2,1.08M152.64,48.27c-.53,0-.95.37-.95.83s.42.83.95.83.96-.37.96-.83-.43-.83-.96-.83M153.08,49.21s-.07.03-.11.05c0,0,.07.09.3.36l-.04.04c-.1.08-.24.07-.32-.03-.25-.3-.28-.34-.28-.34h-.29v-.08c.01-.11.1-.2.22-.2h.14c.1,0,.18-.02.23-.05.04-.02.06-.05.06-.09,0-.04,0-.13-.28-.13h-.39v.75c0,.12-.1.22-.23.22h-.06v-1.04c0-.12.1-.21.22-.21h.46c.52,0,.57.29.57.42,0,.15-.08.27-.2.34" />
      <path class="cls-3" d="M132.15,35.29v13.56c0,1.21,1.05,2.21,2.28,2.21v-13.56c0-1.21-1.05-2.21-2.28-2.21" />
    </g>
  </g>
  <g>
    <path class="cls-2" d="M84.36,71.82c-.78,0-1.48.14-2.09.43-.61.29-1.12.7-1.55,1.25-.42.54-.74,1.2-.96,1.97-.22.77-.32,1.63-.32,2.59,0,1.3.18,2.4.53,3.32.35.92.89,1.63,1.62,2.12.73.5,1.64.74,2.75.74.74,0,1.44-.08,2.12-.23.68-.15,1.4-.36,2.15-.61v2.62c-.7.29-1.41.5-2.12.62s-1.53.19-2.46.19c-1.76,0-3.22-.36-4.37-1.09-1.15-.73-2.01-1.75-2.57-3.07-.56-1.32-.84-2.87-.84-4.64,0-1.3.18-2.48.54-3.55.36-1.07.88-2,1.56-2.78.68-.78,1.52-1.39,2.53-1.82,1.01-.43,2.17-.65,3.48-.65.86,0,1.72.1,2.56.3.84.2,1.63.48,2.36.83l-1.06,2.52c-.61-.27-1.24-.52-1.88-.73s-1.31-.32-1.98-.32Z" />
    <path class="cls-2" d="M94.51,86.6h-3.02v-18.24h3.02v18.24Z" />
    <path class="cls-2" d="M109.46,80.07c0,1.09-.14,2.05-.43,2.88s-.7,1.54-1.24,2.12c-.54.58-1.19,1.02-1.97,1.32s-1.64.44-2.58.44-1.72-.15-2.47-.44c-.75-.3-1.4-.74-1.96-1.32-.55-.58-.98-1.29-1.28-2.12-.3-.83-.46-1.79-.46-2.88,0-1.44.25-2.66.74-3.66.5-1,1.21-1.76,2.15-2.28s2.04-.78,3.32-.78,2.28.26,3.2.78c.92.52,1.64,1.28,2.17,2.28s.79,2.22.79,3.66ZM100.17,80.07c0,.91.11,1.69.32,2.34.22.65.55,1.14,1.01,1.48s1.04.5,1.76.5,1.33-.17,1.79-.5c.46-.34.79-.83,1-1.48s.31-1.43.31-2.34-.11-1.71-.32-2.34c-.22-.63-.55-1.11-1.01-1.44-.46-.33-1.04-.49-1.76-.49-1.09,0-1.88.37-2.36,1.1-.49.74-.73,1.79-.73,3.17Z" />
    <path class="cls-2" d="M123.6,73.59v13.01h-2.38l-.41-1.68h-.14c-.27.45-.62.81-1.06,1.09s-.9.49-1.42.62-1.04.2-1.58.2c-.96,0-1.79-.17-2.5-.5s-1.24-.85-1.61-1.55-.55-1.6-.55-2.7v-8.5h3.02v7.9c0,.96.19,1.68.58,2.17.38.49.99.73,1.82.73s1.46-.17,1.92-.52c.46-.34.79-.84.98-1.5.19-.66.29-1.46.29-2.42v-6.36h3.02Z" />
    <path class="cls-2" d="M131.23,86.84c-1.5,0-2.72-.56-3.66-1.69s-1.4-2.8-1.4-5.03.47-3.91,1.42-5.05c.94-1.14,2.18-1.72,3.72-1.72.64,0,1.2.08,1.69.25.49.17.91.4,1.26.68.35.29.65.61.89.96h.14c-.05-.22-.1-.57-.14-1.03-.05-.46-.07-.9-.07-1.3v-4.56h3.02v18.24h-2.35l-.55-1.7h-.12c-.24.35-.54.68-.89.97-.35.3-.77.53-1.25.71s-1.05.26-1.7.26ZM132.14,84.39c1.12,0,1.91-.32,2.38-.96.46-.64.7-1.61.7-2.9v-.38c0-1.41-.22-2.48-.66-3.22-.44-.74-1.26-1.1-2.46-1.1-.91,0-1.62.38-2.11,1.14-.5.76-.74,1.83-.74,3.2s.25,2.42.74,3.14c.5.72,1.22,1.08,2.16,1.08Z" />
    <path class="cls-2" d="M57.35,107.6h-9.74v-17.14h9.74v2.57h-6.67v4.37h6.24v2.57h-6.24v5.04h6.67v2.59Z" />
    <path class="cls-2" d="M69.03,103.83c0,.86-.21,1.6-.62,2.2-.42.6-1.03,1.05-1.84,1.36s-1.8.46-2.96.46c-.91,0-1.7-.06-2.35-.19-.66-.13-1.28-.33-1.87-.6v-2.57c.64.3,1.35.56,2.14.77.78.21,1.51.31,2.18.31.83,0,1.43-.13,1.8-.38.37-.26.55-.6.55-1.03,0-.26-.07-.49-.22-.7s-.42-.43-.84-.66c-.42-.23-1.05-.52-1.9-.88-.83-.34-1.52-.67-2.08-1.01-.55-.34-.97-.74-1.25-1.21-.28-.47-.42-1.07-.42-1.79,0-1.17.46-2.05,1.39-2.65.93-.6,2.15-.9,3.67-.9.8,0,1.56.08,2.27.23.71.15,1.43.4,2.15.73l-.96,2.23c-.59-.26-1.18-.47-1.76-.65-.58-.18-1.18-.26-1.79-.26-.66,0-1.15.1-1.49.3-.34.2-.5.48-.5.83,0,.27.08.51.25.71s.46.4.89.6c.42.2,1.03.46,1.81.78.78.3,1.45.62,2,.95.55.33.98.73,1.28,1.21.3.48.46,1.09.46,1.82Z" />
    <path class="cls-2" d="M80.27,103.83c0,.86-.21,1.6-.62,2.2-.42.6-1.03,1.05-1.84,1.36s-1.8.46-2.96.46c-.91,0-1.7-.06-2.35-.19-.66-.13-1.28-.33-1.87-.6v-2.57c.64.3,1.35.56,2.14.77.78.21,1.51.31,2.18.31.83,0,1.43-.13,1.8-.38.37-.26.55-.6.55-1.03,0-.26-.07-.49-.22-.7s-.42-.43-.84-.66c-.42-.23-1.05-.52-1.9-.88-.83-.34-1.52-.67-2.08-1.01-.55-.34-.97-.74-1.25-1.21-.28-.47-.42-1.07-.42-1.79,0-1.17.46-2.05,1.39-2.65.93-.6,2.15-.9,3.67-.9.8,0,1.56.08,2.27.23.71.15,1.43.4,2.15.73l-.96,2.23c-.59-.26-1.18-.47-1.76-.65-.58-.18-1.18-.26-1.79-.26-.66,0-1.15.1-1.49.3-.34.2-.5.48-.5.83,0,.27.08.51.25.71s.46.4.89.6c.42.2,1.03.46,1.81.78.78.3,1.45.62,2,.95.55.33.98.73,1.28,1.21.3.48.46,1.09.46,1.82Z" />
    <path class="cls-2" d="M87.87,94.35c1.17,0,2.17.24,3.01.71.84.47,1.49,1.14,1.96,2.02.46.87.7,1.93.7,3.18v1.54h-8.59c.03,1.18.36,2.1.98,2.75s1.49.97,2.59.97c.85,0,1.6-.08,2.27-.25s1.35-.41,2.05-.73v2.42c-.64.3-1.3.53-1.99.67s-1.51.22-2.47.22c-1.26,0-2.39-.24-3.37-.73-.98-.49-1.75-1.23-2.3-2.22-.55-.99-.83-2.22-.83-3.7s.25-2.74.76-3.76c.5-1.02,1.2-1.78,2.1-2.3.9-.52,1.94-.78,3.14-.78ZM87.87,96.58c-.8,0-1.45.26-1.96.78-.5.52-.8,1.29-.9,2.32h5.59c0-.61-.1-1.14-.3-1.61s-.5-.83-.9-1.09c-.4-.26-.91-.4-1.54-.4Z" />
    <path class="cls-2" d="M103.02,94.35c1.46,0,2.6.38,3.42,1.13.82.75,1.24,1.97,1.24,3.65v8.47h-3.02v-7.87c0-.98-.19-1.71-.58-2.2-.38-.49-.99-.73-1.82-.73-1.22,0-2.05.38-2.5,1.14-.45.76-.67,1.86-.67,3.3v6.36h-3.02v-13.01h2.33l.43,1.7h.17c.29-.45.64-.82,1.06-1.1.42-.29.88-.5,1.39-.64.51-.14,1.04-.2,1.58-.2Z" />
    <path class="cls-2" d="M115.98,105.42c.38,0,.75-.04,1.1-.11s.68-.16.98-.25v2.26c-.32.14-.74.27-1.25.37-.51.1-1.05.16-1.61.16-.74,0-1.4-.12-2-.37-.6-.25-1.08-.68-1.44-1.28-.36-.61-.54-1.46-.54-2.54v-6.77h-1.75v-1.32l1.92-1.06.96-2.76h1.9v2.86h3.7v2.28h-3.7v6.74c0,.61.16,1.06.48,1.36.32.3.74.44,1.25.44Z" />
    <path class="cls-2" d="M121.67,89.58c.45,0,.84.12,1.18.35s.5.64.5,1.24-.17.99-.5,1.24c-.34.25-.73.37-1.18.37s-.86-.12-1.19-.37c-.33-.25-.49-.66-.49-1.24s.16-1,.49-1.24c.33-.23.72-.35,1.19-.35ZM123.18,94.59v13.01h-3.02v-13.01h3.02Z" />
    <path class="cls-2" d="M131.7,94.35c1.68,0,2.96.36,3.83,1.09.87.73,1.31,1.87,1.31,3.42v8.74h-2.14l-.6-1.8h-.1c-.37.46-.75.85-1.14,1.16s-.84.54-1.34.67c-.5.14-1.12.2-1.84.2-.77,0-1.46-.14-2.08-.43-.62-.29-1.1-.73-1.45-1.33-.35-.6-.53-1.36-.53-2.27,0-1.34.49-2.36,1.48-3.04.98-.68,2.48-1.05,4.48-1.12l2.26-.07v-.65c0-.83-.2-1.42-.6-1.78-.4-.35-.96-.53-1.68-.53-.66,0-1.29.1-1.9.29-.61.19-1.2.42-1.78.67l-.96-2.11c.64-.34,1.37-.61,2.2-.82.82-.21,1.68-.31,2.58-.31ZM132.25,101.5c-1.33.05-2.25.28-2.76.68-.51.41-.77.96-.77,1.64,0,.61.18,1.05.55,1.32.37.27.84.41,1.42.41.88,0,1.62-.25,2.23-.76.61-.5.91-1.25.91-2.24v-1.1l-1.58.05Z" />
    <path class="cls-2" d="M143.12,107.6h-3.02v-18.24h3.02v18.24Z" />
    <path class="cls-2" d="M155.31,103.83c0,.86-.21,1.6-.62,2.2-.42.6-1.03,1.05-1.84,1.36s-1.8.46-2.96.46c-.91,0-1.7-.06-2.35-.19-.66-.13-1.28-.33-1.87-.6v-2.57c.64.3,1.35.56,2.14.77.78.21,1.51.31,2.18.31.83,0,1.43-.13,1.8-.38.37-.26.55-.6.55-1.03,0-.26-.07-.49-.22-.7s-.42-.43-.84-.66c-.42-.23-1.05-.52-1.9-.88-.83-.34-1.52-.67-2.08-1.01-.55-.34-.97-.74-1.25-1.21-.28-.47-.42-1.07-.42-1.79,0-1.17.46-2.05,1.39-2.65.93-.6,2.15-.9,3.67-.9.8,0,1.56.08,2.27.23.71.15,1.43.4,2.15.73l-.96,2.23c-.59-.26-1.18-.47-1.76-.65-.58-.18-1.18-.26-1.79-.26-.66,0-1.15.1-1.49.3-.34.2-.5.48-.5.83,0,.27.08.51.25.71s.46.4.89.6c.42.2,1.03.46,1.81.78.78.3,1.45.62,2,.95.55.33.98.73,1.28,1.21.3.48.46,1.09.46,1.82Z" />
    <path class="cls-2" d="M163.71,98.02h4.63v2.23h-4.63v4.68h-2.26v-4.68h-4.61v-2.23h4.61v-4.73h2.26v4.73Z" />
  </g>
</svg>