<?xml version="1.0" encoding="UTF-8"?>
<svg id="Logotype_Editable_Text" xmlns="http://www.w3.org/2000/svg" viewBox="0 0 214.27 178.41">
  <defs>
    <style>
      .cls-1 {
        fill: #757575;
      }

      .cls-1, .cls-2, .cls-3, .cls-4 {
        stroke-width: 0px;
      }

      .cls-2 {
        fill: #fff;
      }

      .cls-3 {
        fill: #c8202f;
      }

      .cls-4 {
        fill: #6d7780;
      }
    </style>
  </defs>
  <path class="cls-2" d="M97.5,140.45c-15.32,1.56-29.92,6.85-42.61,15.36,14.02,12.14,32.28,19.52,52.24,19.52s38.19-7.36,52.21-19.49c-13-8.74-27.99-14.05-43.71-15.48l-18.13.08Z" />
  <path class="cls-2" d="M107.14,3.08C56.21,3.08,14.78,44.51,14.78,95.43c0,25.13,9.86,48.53,27.81,66.05,2.37-2.13,4.85-4.11,7.4-5.98-15.89-15.13-25.83-36.46-25.83-60.08C24.16,49.68,61.38,12.45,107.14,12.45s82.98,37.23,82.98,82.98c0,23.63-9.95,44.98-25.86,60.1,2.53,1.86,5,3.83,7.36,5.95,17.99-17.56,27.87-40.96,27.87-66.06,0-50.92-41.43-92.35-92.35-92.35Z" />
  <path class="cls-2" d="M107.14,15.53c-44.06,0-79.9,35.84-79.9,79.9,0,22.96,9.75,43.68,25.31,58.26,13.34-9.11,28.77-14.75,44.96-16.34l18.13-.07c16.61,1.45,32.42,7.09,46.08,16.44,15.57-14.59,25.33-35.31,25.33-58.29,0-44.06-35.84-79.9-79.9-79.9Z" />
  <path class="cls-1" d="M107.14,0C54.51,0,11.7,42.81,11.7,95.43c0,26.46,10.58,51.07,29.8,69.28l1.05.99,1.06-.98c2.76-2.55,5.66-4.92,8.68-7.1,14.64,12.92,33.84,20.79,54.85,20.79s40.18-7.85,54.81-20.76c3,2.17,5.9,4.52,8.65,7.07l1.06.98,1.05-.99c19.26-18.25,29.86-42.85,29.86-69.28C202.57,42.81,159.76,0,107.14,0ZM107.14,175.34c-19.96,0-38.22-7.37-52.24-19.52,12.68-8.52,27.29-13.8,42.61-15.36l18.13-.08c15.72,1.42,30.71,6.73,43.71,15.48-14.02,12.13-32.26,19.49-52.21,19.49ZM115.63,137.28l-18.13.07c-16.19,1.6-31.63,7.23-44.96,16.34-15.56-14.59-25.31-35.3-25.31-58.26C27.23,51.37,63.08,15.53,107.14,15.53s79.9,35.84,79.9,79.9c0,22.97-9.76,43.7-25.33,58.29-13.65-9.35-29.47-14.99-46.08-16.44ZM190.12,95.43c0-45.76-37.22-82.98-82.98-82.98S24.16,49.68,24.16,95.43c0,23.62,9.94,44.95,25.83,60.08-2.55,1.87-5.03,3.85-7.4,5.98-17.94-17.52-27.81-40.92-27.81-66.05C14.78,44.51,56.21,3.08,107.14,3.08s92.35,41.43,92.35,92.35c0,25.1-9.89,48.5-27.87,66.06-2.36-2.12-4.82-4.09-7.36-5.95,15.91-15.13,25.86-36.47,25.86-60.1Z" />
  <path class="cls-4" d="M171.5,160.09c-.66,0-1.2-.48-1.2-1.08s.54-1.09,1.2-1.09,1.2.49,1.2,1.09-.54,1.08-1.2,1.08M171.5,158.18c-.53,0-.95.37-.95.83s.42.83.95.83.96-.37.96-.83-.43-.83-.96-.83M171.94,159.11s-.07.03-.11.05c0,0,.07.09.3.36l-.04.04c-.1.08-.24.07-.32-.03-.25-.3-.28-.34-.28-.34h-.29v-.08c.01-.11.1-.2.22-.2h.14c.1,0,.18-.02.23-.05.04-.02.06-.05.06-.09,0-.04,0-.13-.28-.13h-.39v.75c0,.12-.1.22-.23.22h-.06v-1.04c0-.12.1-.21.22-.21h.46c.52,0,.57.29.57.42,0,.15-.08.27-.2.34" />
  <polygon class="cls-2" points="117.3 143.57 96.97 143.57 96.97 135.79 117.3 135.79 117.3 143.57 117.3 143.57" />
  <path class="cls-2" d="M116.48,128c0,2.1-4.18,3.8-9.35,3.8s-9.35-1.7-9.35-3.8,4.18-3.8,9.35-3.8,9.35,1.7,9.35,3.8h0Z" />
  <path class="cls-1" d="M107.14,133.18c-5.33,0-10.73-1.78-10.73-5.18s5.4-5.18,10.73-5.18,10.73,1.78,10.73,5.18-5.4,5.18-10.73,5.18ZM107.14,125.59c-5.17,0-7.96,1.71-7.96,2.41s2.79,2.41,7.96,2.41,7.96-1.71,7.96-2.41-2.79-2.41-7.96-2.41Z" />
  <path class="cls-2" d="M116.48,146.61c0,2.1-4.18,3.8-9.35,3.8s-9.35-1.7-9.35-3.8" />
  <path class="cls-1" d="M107.14,151.79c-5.33,0-10.73-1.78-10.73-5.18h2.77c0,.7,2.79,2.41,7.96,2.41s7.96-1.71,7.96-2.41h2.77c0,3.4-5.4,5.18-10.73,5.18Z" />
  <rect class="cls-1" x="96.4" y="128" width="2.77" height="18.61" />
  <path class="cls-1" d="M117.87,146.61h-2.77v-2.62c-2.06,1.05-5.02,1.6-7.96,1.6-5.33,0-10.73-1.78-10.73-5.18h2.77c0,.7,2.79,2.41,7.96,2.41s7.96-1.71,7.96-2.41v-2.62c-2.06,1.05-5.02,1.59-7.96,1.59-5.33,0-10.73-1.78-10.73-5.18h2.77c0,.7,2.79,2.41,7.96,2.41s7.96-1.71,7.96-2.41v-6.2h2.77v18.61Z" />
  <polygon class="cls-2" points="98.33 168.23 91.9 168.23 91.9 161.8 98.33 161.8 98.33 168.23 98.33 168.23" />
  <path class="cls-1" d="M99.72,169.61h-9.2v-9.2h9.2v9.2ZM93.29,166.84h3.66v-3.66h-3.66v3.66Z" />
  <polygon class="cls-2" points="110.35 168.23 103.92 168.23 103.92 161.8 110.35 161.8 110.35 168.23 110.35 168.23" />
  <path class="cls-1" d="M111.73,169.61h-9.2v-9.2h9.2v9.2ZM105.31,166.84h3.66v-3.66h-3.66v3.66Z" />
  <polygon class="cls-2" points="122.37 168.23 115.94 168.23 115.94 161.8 122.37 161.8 122.37 168.23 122.37 168.23" />
  <path class="cls-1" d="M123.75,169.61h-9.2v-9.2h9.2v9.2ZM117.33,166.84h3.66v-3.66h-3.66v3.66ZM108.52,159.16h-2.77v-6.11h2.77v6.11ZM117.69,158.95l-3.2-6.16,2.46-1.28,3.2,6.16-2.46,1.28ZM96.58,158.95l-2.46-1.28,3.2-6.16,2.46,1.28-3.2,6.16Z" />
  <path class="cls-3" d="M205.91,60.08H0v49.89c0,4.61,3.75,8.37,8.36,8.37h205.91v-49.89c0-4.61-3.75-8.37-8.36-8.37h0Z" />
  <g>
    <path class="cls-3" d="M82.98,51.06c-3.52,0-6.28-2.47-6.28-5.66s2.76-5.69,6.28-5.69,6.28,2.5,6.28,5.69-2.76,5.66-6.28,5.66M82.98,41.99c-2.24,0-4,1.5-4,3.4s1.76,3.38,4,3.38,4-1.47,4-3.38-1.76-3.4-4-3.4" />
    <path class="cls-3" d="M105.45,51.06c-1.26,0-2.28-1.05-2.28-2.33v-4.71c0-1.12-.98-2.02-2.19-2.02s-2.17.9-2.17,2.02v7.04c-1.26,0-2.29-1.02-2.29-2.28v-4.76c0-1.12-.98-2.02-2.19-2.02s-2.17.9-2.17,2.02v4.74c0,1.26-1.02,2.31-2.28,2.31v-7.04c0-2.38,2-4.31,4.45-4.31,1.33,0,2.52.55,3.33,1.43.81-.88,2-1.43,3.31-1.43,2.47,0,4.47,1.93,4.47,4.31v7.04h0Z" />
    <path class="cls-3" d="M112.87,51.03c-.6,0-1.17-.05-1.69-.17-1.19-.33-1.88-1.57-1.57-2.76.04-.14.09-.28.14-.4l.02-.02c.64.72,1.69,1.07,3.09,1.07,2.1,0,3.74-1.47,3.74-3.33s-1.64-3.45-3.74-3.45c-1.98,0-3.95,1.09-3.95,3.5v7.4c0,1.24-1.04,2.24-2.28,2.24v-9.64c0-3.33,2.62-5.78,6.24-5.78,1.6,0,3.09.6,4.23,1.64,1.15,1.07,1.79,2.52,1.79,4.09,0,3.14-2.64,5.62-6.02,5.62" />
    <path class="cls-3" d="M129.16,37.54h-4.89v13.52h-.1c-1.21,0-2.19-1.04-2.19-2.28v-11.23h-4.89c-1.24,0-2.24-1.02-2.24-2.26h16.56c0,1.24-1,2.26-2.26,2.26" />
    <path class="cls-3" d="M148.73,49.62l-1.21-2.61h-8.12s-1.2,2.68-1.2,2.68c-.57,1.08-2.07,1.4-3.23,1.4l6.61-14.5c.38-.83,1.04-1.31,1.81-1.31s1.46.48,1.83,1.31l6.54,14.33c-1.23.12-2.57-.25-3.05-1.3M143.66,37.64l-3.25,7.14h6.13l-3.27-7.16.39.02h0Z" />
    <path class="cls-3" d="M74.14,39.54c-1.24-1.31-3.05-2.16-5.05-2.16-3.54,0-6.43,2.57-6.43,5.73,0,3.16,2.88,5.76,6.43,5.76,1.69,0,3.28-.64,4.5-1.66.83-.69,2.07-.64,2.88.05-.62.95-1.45,1.78-2.48,2.43-1.45.93-3.14,1.41-4.9,1.41-4.78,0-8.66-3.57-8.66-7.97s3.88-7.97,8.66-7.97c3.4,0,6.5,1.86,7.88,4.71-.88.57-2.09.5-2.83-.31" />
    <path class="cls-3" d="M152.64,50.18c-.66,0-1.2-.48-1.2-1.08s.54-1.09,1.2-1.09,1.2.49,1.2,1.09-.54,1.08-1.2,1.08M152.64,48.27c-.53,0-.95.37-.95.83s.42.83.95.83.96-.37.96-.83-.43-.83-.96-.83M153.08,49.21s-.07.03-.11.05c0,0,.07.09.3.36l-.04.04c-.1.08-.24.07-.32-.03-.25-.3-.28-.34-.28-.34h-.29v-.08c.01-.11.1-.2.22-.2h.14c.1,0,.18-.02.23-.05.04-.02.06-.05.06-.09,0-.04,0-.13-.28-.13h-.39v.75c0,.12-.1.22-.23.22h-.06v-1.04c0-.12.1-.21.22-.21h.46c.52,0,.57.29.57.42,0,.15-.08.27-.2.34" />
    <path class="cls-3" d="M132.15,35.29v13.56c0,1.21,1.05,2.21,2.28,2.21v-13.56c0-1.21-1.05-2.21-2.28-2.21" />
  </g>
  <g>
    <path class="cls-2" d="M56.66,89.77c0,2.72-.52,5-1.55,6.83-1.03,1.84-2.52,3.22-4.45,4.15-1.94.93-4.28,1.39-7.02,1.39h-6.83v-24.28h7.55c2.52,0,4.69.45,6.53,1.36,1.84.91,3.26,2.24,4.27,4,1.01,1.76,1.51,3.94,1.51,6.54ZM52.11,89.91c0-1.93-.29-3.51-.88-4.76-.59-1.25-1.46-2.17-2.62-2.77-1.16-.6-2.57-.9-4.25-.9h-3.2v17.03h2.62c2.81,0,4.9-.72,6.27-2.16s2.06-3.59,2.06-6.44Z" />
    <path class="cls-2" d="M68.02,83.38c2.38,0,4.19.52,5.42,1.55,1.24,1.03,1.85,2.65,1.85,4.85v12.38h-3.03l-.85-2.55h-.14c-.52.66-1.06,1.21-1.61,1.65-.56.44-1.19.76-1.9.95-.71.19-1.58.29-2.6.29-1.09,0-2.07-.2-2.94-.61s-1.56-1.04-2.06-1.89c-.5-.85-.75-1.92-.75-3.21,0-1.9.7-3.34,2.09-4.3s3.51-1.49,6.34-1.58l3.2-.1v-.92c0-1.18-.28-2.02-.85-2.52-.57-.5-1.36-.75-2.38-.75-.93,0-1.82.14-2.69.41-.86.27-1.7.59-2.52.95l-1.36-2.99c.91-.48,1.94-.86,3.11-1.16,1.17-.29,2.39-.44,3.66-.44ZM68.8,93.51c-1.88.07-3.18.39-3.91.97-.73.58-1.09,1.35-1.09,2.33,0,.86.26,1.48.78,1.87.52.39,1.19.58,2.01.58,1.25,0,2.3-.36,3.16-1.07.86-.71,1.29-1.77,1.29-3.18v-1.56l-2.24.07Z" />
    <path class="cls-2" d="M87.06,99.06c.54,0,1.06-.05,1.56-.15.5-.1.96-.22,1.39-.36v3.2c-.45.2-1.04.38-1.77.53-.73.15-1.48.22-2.28.22-1.04,0-1.99-.18-2.84-.53-.85-.35-1.53-.96-2.04-1.82-.51-.86-.76-2.06-.76-3.6v-9.59h-2.48v-1.87l2.72-1.5,1.36-3.91h2.69v4.05h5.24v3.23h-5.24v9.55c0,.86.23,1.5.68,1.92.45.42,1.04.63,1.77.63Z" />
    <path class="cls-2" d="M100.32,83.38c2.38,0,4.19.52,5.42,1.55,1.24,1.03,1.85,2.65,1.85,4.85v12.38h-3.03l-.85-2.55h-.14c-.52.66-1.06,1.21-1.61,1.65-.56.44-1.19.76-1.9.95-.71.19-1.58.29-2.6.29-1.09,0-2.07-.2-2.94-.61s-1.56-1.04-2.06-1.89c-.5-.85-.75-1.92-.75-3.21,0-1.9.7-3.34,2.09-4.3s3.51-1.49,6.34-1.58l3.2-.1v-.92c0-1.18-.28-2.02-.85-2.52-.57-.5-1.36-.75-2.38-.75-.93,0-1.82.14-2.69.41-.86.27-1.7.59-2.52.95l-1.36-2.99c.91-.48,1.94-.86,3.11-1.16,1.17-.29,2.39-.44,3.66-.44ZM101.1,93.51c-1.88.07-3.18.39-3.91.97-.73.58-1.09,1.35-1.09,2.33,0,.86.26,1.48.78,1.87.52.39,1.19.58,2.01.58,1.25,0,2.3-.36,3.16-1.07.86-.71,1.29-1.77,1.29-3.18v-1.56l-2.24.07Z" />
    <path class="cls-2" d="M126.74,95.52c0,1.43-.35,2.66-1.05,3.71s-1.72,1.85-3.04,2.41c-1.33.57-2.91.85-4.74.85-.88,0-1.73-.05-2.53-.15-.8-.1-1.56-.25-2.28-.46s-1.38-.45-1.99-.75v-4.08c1.02.45,2.14.87,3.37,1.24s2.47.56,3.74.56c.97,0,1.77-.13,2.4-.39.62-.26,1.08-.62,1.38-1.09.29-.46.44-1,.44-1.62,0-.68-.19-1.26-.58-1.73-.39-.48-.95-.92-1.7-1.33-.75-.41-1.68-.84-2.79-1.29-.75-.32-1.48-.67-2.19-1.07-.71-.4-1.35-.88-1.92-1.44-.57-.57-1.02-1.24-1.36-2.01-.34-.77-.51-1.68-.51-2.72,0-1.38.33-2.57,1-3.57.67-1,1.61-1.76,2.82-2.28,1.21-.52,2.62-.78,4.23-.78,1.29,0,2.5.14,3.64.41,1.13.27,2.25.66,3.37,1.16l-1.39,3.5c-1-.43-1.96-.77-2.89-1.02-.93-.25-1.88-.37-2.86-.37-.77,0-1.43.12-1.97.36-.54.24-.95.57-1.22,1-.27.43-.41.93-.41,1.5,0,.66.17,1.21.51,1.67.34.45.87.88,1.58,1.27.71.4,1.64.84,2.77,1.34,1.31.57,2.43,1.16,3.33,1.77.91.61,1.61,1.35,2.11,2.21.5.86.75,1.93.75,3.2Z" />
    <path class="cls-2" d="M127.42,83.72h4.66l3.67,10.4c.16.45.3.89.42,1.31s.23.84.32,1.27c.09.43.16.86.2,1.29h.14c.09-.57.23-1.19.42-1.87s.39-1.35.6-2.01l3.54-10.4h4.62l-7.85,20.88c-.45,1.2-1.03,2.23-1.72,3.09-.69.86-1.51,1.51-2.45,1.96-.94.44-2,.66-3.18.66-.54,0-1.03-.03-1.44-.08-.42-.06-.79-.12-1.1-.19v-3.4c.25.05.55.09.9.14.35.04.72.07,1.1.07.7,0,1.31-.14,1.82-.42.51-.28.94-.67,1.29-1.17.35-.5.64-1.05.87-1.67l.54-1.5-7.38-18.36Z" />
    <path class="cls-2" d="M160.57,96.81c0,1.22-.29,2.26-.88,3.11-.59.85-1.46,1.49-2.6,1.92-1.15.43-2.54.65-4.2.65-1.29,0-2.4-.09-3.33-.27-.93-.18-1.81-.46-2.65-.85v-3.64c.91.43,1.92.79,3.03,1.09,1.11.29,2.14.44,3.09.44,1.18,0,2.03-.18,2.55-.54.52-.36.78-.85.78-1.46,0-.36-.1-.69-.31-.99-.2-.29-.6-.61-1.19-.94s-1.48-.74-2.69-1.24c-1.18-.48-2.16-.95-2.94-1.43-.78-.48-1.37-1.05-1.77-1.72-.4-.67-.59-1.51-.59-2.53,0-1.65.66-2.91,1.97-3.76,1.31-.85,3.05-1.27,5.2-1.27,1.13,0,2.2.11,3.21.32,1.01.22,2.02.56,3.04,1.04l-1.36,3.16c-.84-.36-1.67-.67-2.5-.92-.83-.25-1.67-.37-2.53-.37-.93,0-1.63.14-2.11.43-.48.28-.71.67-.71,1.17,0,.39.12.72.36,1,.24.28.66.57,1.26.85.6.28,1.46.65,2.57,1.1,1.11.43,2.06.88,2.84,1.34.78.46,1.39,1.04,1.82,1.72.43.68.65,1.54.65,2.58Z" />
    <path class="cls-2" d="M172.47,88.58h6.56v3.16h-6.56v6.63h-3.2v-6.63h-6.53v-3.16h6.53v-6.7h3.2v6.7Z" />
  </g>
</svg>