<?xml version="1.0" encoding="UTF-8"?>
<svg id="Logotype_Editable_Text" xmlns="http://www.w3.org/2000/svg" viewBox="0 0 214.27 178.41">
  <defs>
    <style>
      .cls-1 {
        fill: #757575;
      }

      .cls-1, .cls-2, .cls-3 {
        stroke-width: 0px;
      }

      .cls-2 {
        fill: #fff;
      }

      .cls-3 {
        fill: #c8202f;
      }
    </style>
  </defs>
  <g>
    <g>
      <path class="cls-2" d="M107.14,0C54.51,0,11.7,42.81,11.7,95.43c0,26.46,10.58,51.07,29.8,69.28l1.05.99,1.06-.98c2.76-2.55,5.68-4.9,8.7-7.08,14.63,12.91,33.83,20.77,54.83,20.77s40.18-7.85,54.81-20.76c3,2.17,5.9,4.53,8.65,7.07l1.06.98,1.05-.99c19.26-18.25,29.86-42.85,29.86-69.28C202.57,42.81,159.76,0,107.14,0h0Z" />
      <path class="cls-1" d="M171.62,161.49c-2.36-2.12-4.82-4.1-7.35-5.96,15.9-15.13,25.85-36.47,25.85-60.1,0-45.76-37.23-82.98-82.98-82.98S24.16,49.68,24.16,95.43c0,23.62,9.94,44.95,25.83,60.08-2.55,1.87-5.02,3.85-7.4,5.98-17.94-17.52-27.81-40.92-27.81-66.05C14.78,44.51,56.21,3.08,107.14,3.08s92.35,41.43,92.35,92.35c0,25.1-9.89,48.5-27.87,66.06h0ZM94.8,151.85s.01,0,.02,0h23.16c4.48,0,8.14-3.54,8.35-7.97,0-.04.02-.06.02-.1,0-.05,0-.1,0-.15,0-.05,0-.09,0-.14h-.01s0-.02,0-.03h.87c1.45,0,7.29,1.45,7.29,8.13s-6.27,7.99-8.68,7.99h-31.01c-2.13,0-3.86-1.73-3.86-3.86s1.73-3.86,3.86-3.86h0ZM112.67,135.31c-2.8.9-4.98,2.86-5.8,5.45-.26.81.19,1.67,1,1.93.81.26,1.68-.19,1.93-1,.73-2.3,3.27-3.85,6.31-3.85,4.41,0,7.06,2.16,7.13,5.78-.08,2.85-2.41,5.15-5.27,5.15h-34.41c-2.33,0-4.22-1.89-4.22-4.22s1.89-4.22,4.22-4.22h3l.08-1.46c.15-2.81,2.46-5.01,5.27-5.01h5.16l.31-1.13c.93-3.35,4.01-5.7,7.5-5.7,4.29,0,7.78,3.49,7.78,7.78v.5h0ZM27.23,95.43C27.23,51.37,63.08,15.53,107.14,15.53s79.9,35.84,79.9,79.9c0,22.97-9.76,43.7-25.33,58.29-11.14-7.63-23.71-12.79-36.98-15.23-1.73-2.36-4.74-3.73-8.61-3.73-.13,0-.24.02-.37.02-.01-5.97-4.88-10.83-10.85-10.83-4.46,0-8.45,2.75-10.08,6.83h-2.89c-3.95,0-7.28,2.74-8.14,6.47h-.21c-3.02,0-5.62,1.85-6.73,4.47-8.61,2.82-16.78,6.86-24.29,11.98-15.57-14.59-25.32-35.31-25.32-58.28h0ZM107.14,175.34c-19.96,0-38.21-7.37-52.23-19.51,6.67-4.47,13.88-8.04,21.44-10.65.32,3.73,3.42,6.68,7.23,6.68h5.47c-.74,1.11-1.18,2.43-1.18,3.87,0,3.83,3.11,6.94,6.94,6.94h31.01c4.55,0,11.76-3.01,11.76-11.07,0-3.26-1.08-5.67-2.58-7.41,8.62,2.67,16.83,6.59,24.36,11.66-14.02,12.13-32.27,19.5-52.21,19.5h0ZM107.14,0C54.51,0,11.7,42.81,11.7,95.43c0,26.46,10.58,51.07,29.8,69.28l1.05.99,1.06-.98c2.76-2.55,5.68-4.9,8.7-7.08,14.63,12.91,33.83,20.77,54.83,20.77s40.18-7.85,54.81-20.76c3,2.17,5.9,4.53,8.65,7.07l1.06.98,1.05-.99c19.26-18.25,29.86-42.85,29.86-69.28C202.57,42.81,159.76,0,107.14,0h0Z" />
      <path class="cls-3" d="M205.91,60.08H0v49.89c0,4.61,3.75,8.37,8.36,8.37h205.91v-49.89c0-4.61-3.75-8.37-8.36-8.37h0Z" />
      <path class="cls-1" d="M171.55,160.2c-.66,0-1.2-.48-1.2-1.08s.54-1.09,1.2-1.09,1.2.49,1.2,1.09-.54,1.08-1.2,1.08M171.55,158.29c-.53,0-.95.37-.95.83s.42.83.95.83.96-.37.96-.83-.43-.83-.96-.83M171.99,159.22s-.07.03-.11.05c0,0,.07.09.3.36l-.04.04c-.1.08-.24.07-.32-.02-.25-.3-.28-.34-.28-.34h-.29v-.08c.01-.11.11-.2.22-.2h.14c.1,0,.18-.02.23-.05.04-.02.06-.05.06-.09,0-.04,0-.14-.28-.14h-.39v.75c0,.12-.1.22-.23.22h-.06v-1.04c0-.12.1-.21.22-.21h.46c.52,0,.57.29.57.42,0,.15-.08.27-.2.34" />
    </g>
    <g>
      <path class="cls-3" d="M82.98,51.06c-3.52,0-6.28-2.47-6.28-5.66s2.76-5.69,6.28-5.69,6.28,2.5,6.28,5.69-2.76,5.66-6.28,5.66M82.98,41.99c-2.24,0-4,1.5-4,3.4s1.76,3.38,4,3.38,4-1.47,4-3.38-1.76-3.4-4-3.4" />
      <path class="cls-3" d="M105.45,51.06c-1.26,0-2.28-1.05-2.28-2.33v-4.71c0-1.12-.98-2.02-2.19-2.02s-2.17.9-2.17,2.02v7.04c-1.26,0-2.29-1.02-2.29-2.28v-4.76c0-1.12-.98-2.02-2.19-2.02s-2.17.9-2.17,2.02v4.74c0,1.26-1.02,2.31-2.28,2.31v-7.04c0-2.38,2-4.31,4.45-4.31,1.33,0,2.52.55,3.33,1.43.81-.88,2-1.43,3.31-1.43,2.47,0,4.47,1.93,4.47,4.31v7.04h0Z" />
      <path class="cls-3" d="M112.87,51.03c-.6,0-1.17-.05-1.69-.17-1.19-.33-1.88-1.57-1.57-2.76.04-.14.09-.28.14-.4l.02-.02c.64.72,1.69,1.07,3.09,1.07,2.1,0,3.74-1.47,3.74-3.33s-1.64-3.45-3.74-3.45c-1.98,0-3.95,1.09-3.95,3.5v7.4c0,1.24-1.04,2.24-2.28,2.24v-9.64c0-3.33,2.62-5.78,6.24-5.78,1.6,0,3.09.6,4.23,1.64,1.15,1.07,1.79,2.52,1.79,4.09,0,3.14-2.64,5.62-6.02,5.62" />
      <path class="cls-3" d="M129.16,37.54h-4.89v13.52h-.1c-1.21,0-2.19-1.04-2.19-2.28v-11.23h-4.89c-1.24,0-2.24-1.02-2.24-2.26h16.56c0,1.24-1,2.26-2.26,2.26" />
      <path class="cls-3" d="M148.73,49.62l-1.21-2.61h-8.12s-1.2,2.68-1.2,2.68c-.57,1.08-2.07,1.4-3.23,1.4l6.61-14.5c.38-.83,1.04-1.31,1.81-1.31s1.46.48,1.83,1.31l6.54,14.33c-1.23.12-2.57-.25-3.05-1.3M143.66,37.64l-3.25,7.14h6.13l-3.27-7.16.39.02h0Z" />
      <path class="cls-3" d="M74.14,39.54c-1.24-1.31-3.05-2.16-5.05-2.16-3.54,0-6.43,2.57-6.43,5.73,0,3.16,2.88,5.76,6.43,5.76,1.69,0,3.28-.64,4.5-1.66.83-.69,2.07-.64,2.88.05-.62.95-1.45,1.78-2.48,2.43-1.45.93-3.14,1.41-4.9,1.41-4.78,0-8.66-3.57-8.66-7.97s3.88-7.97,8.66-7.97c3.4,0,6.5,1.86,7.88,4.71-.88.57-2.09.5-2.83-.31" />
      <path class="cls-3" d="M152.64,50.18c-.66,0-1.2-.48-1.2-1.08s.54-1.09,1.2-1.09,1.2.49,1.2,1.09-.54,1.08-1.2,1.08M152.64,48.27c-.53,0-.95.37-.95.83s.42.83.95.83.96-.37.96-.83-.43-.83-.96-.83M153.08,49.21s-.07.03-.11.05c0,0,.07.09.3.36l-.04.04c-.1.08-.24.07-.32-.03-.25-.3-.28-.34-.28-.34h-.29v-.08c.01-.11.1-.2.22-.2h.14c.1,0,.18-.02.23-.05.04-.02.06-.05.06-.09,0-.04,0-.13-.28-.13h-.39v.75c0,.12-.1.22-.23.22h-.06v-1.04c0-.12.1-.21.22-.21h.46c.52,0,.57.29.57.42,0,.15-.08.27-.2.34" />
      <path class="cls-3" d="M132.15,35.29v13.56c0,1.21,1.05,2.21,2.28,2.21v-13.56c0-1.21-1.05-2.21-2.28-2.21" />
    </g>
  </g>
  <g>
    <path class="cls-2" d="M65.11,81.21c-1.11,0-2.1.2-2.96.61-.86.41-1.59,1-2.19,1.77-.6.77-1.05,1.7-1.36,2.79-.31,1.09-.46,2.31-.46,3.67,0,1.84.25,3.41.75,4.71.5,1.3,1.26,2.31,2.29,3.01,1.03.7,2.33,1.05,3.89,1.05,1.04,0,2.05-.11,3.01-.32.96-.22,1.98-.5,3.04-.87v3.71c-1,.41-2,.7-3.01.88-1.01.18-2.17.27-3.48.27-2.49,0-4.56-.52-6.19-1.55-1.63-1.03-2.84-2.48-3.64-4.35s-1.19-4.06-1.19-6.58c0-1.84.26-3.51.77-5.03s1.25-2.83,2.21-3.94c.96-1.11,2.16-1.97,3.59-2.58,1.43-.61,3.07-.92,4.93-.92,1.22,0,2.43.14,3.62.43,1.19.28,2.31.67,3.35,1.17l-1.5,3.57c-.86-.38-1.75-.73-2.67-1.04-.92-.31-1.85-.46-2.81-.46Z" />
    <path class="cls-2" d="M79.49,102.15h-4.28v-25.84h4.28v25.84Z" />
    <path class="cls-2" d="M100.68,92.9c0,1.54-.2,2.9-.61,4.08-.41,1.18-.99,2.18-1.75,3.01-.76.83-1.69,1.45-2.79,1.87-1.1.42-2.32.63-3.66.63s-2.44-.21-3.5-.63c-1.07-.42-1.99-1.04-2.77-1.87-.78-.83-1.39-1.83-1.82-3.01-.43-1.18-.65-2.54-.65-4.08,0-2.04.35-3.77,1.05-5.19.7-1.42,1.72-2.49,3.04-3.23,1.33-.74,2.9-1.1,4.71-1.1s3.24.37,4.54,1.1c1.3.74,2.33,1.81,3.08,3.23.75,1.42,1.12,3.15,1.12,5.19ZM87.52,92.9c0,1.29.15,2.4.46,3.31.31.92.78,1.62,1.43,2.09.65.48,1.48.71,2.5.71s1.89-.24,2.53-.71c.65-.48,1.12-1.17,1.41-2.09.29-.92.44-2.02.44-3.31s-.15-2.42-.46-3.31c-.31-.9-.78-1.58-1.43-2.04-.65-.46-1.48-.7-2.5-.7-1.54,0-2.66.52-3.35,1.56s-1.04,2.54-1.04,4.49Z" />
    <path class="cls-2" d="M120.7,83.72v18.43h-3.37l-.58-2.38h-.2c-.39.63-.88,1.15-1.5,1.55-.61.4-1.28.69-2.01.88-.73.19-1.47.29-2.24.29-1.36,0-2.54-.24-3.54-.71-1-.48-1.76-1.21-2.28-2.19-.52-.99-.78-2.26-.78-3.83v-12.04h4.28v11.19c0,1.36.27,2.39.82,3.08.54.69,1.41,1.04,2.58,1.04s2.06-.24,2.72-.73c.66-.49,1.12-1.2,1.39-2.12.27-.93.41-2.07.41-3.43v-9.01h4.28Z" />
    <path class="cls-2" d="M131.51,102.49c-2.13,0-3.86-.8-5.19-2.4-1.33-1.6-1.99-3.97-1.99-7.12s.67-5.54,2.01-7.16,3.09-2.43,5.27-2.43c.91,0,1.71.12,2.4.36.69.24,1.29.56,1.79.97.5.41.92.86,1.26,1.36h.2c-.07-.32-.14-.8-.2-1.46-.07-.66-.1-1.27-.1-1.84v-6.46h4.28v25.84h-3.33l-.78-2.41h-.17c-.34.5-.76.96-1.26,1.38-.5.42-1.09.75-1.77,1-.68.25-1.48.37-2.41.37ZM132.81,99.02c1.59,0,2.71-.45,3.37-1.36.66-.91.99-2.28.99-4.11v-.54c0-1.99-.31-3.51-.94-4.56-.62-1.04-1.78-1.56-3.48-1.56-1.29,0-2.29.54-2.99,1.62s-1.05,2.59-1.05,4.54.35,3.43,1.05,4.45,1.72,1.53,3.06,1.53Z" />
    <path class="cls-2" d="M154.5,88.58h6.56v3.16h-6.56v6.63h-3.2v-6.63h-6.53v-3.16h6.53v-6.7h3.2v6.7Z" />
  </g>
</svg>